<svg width="236" height="51" viewBox="0 0 236 51" fill="none" xmlns="http://www.w3.org/2000/svg">
<g clip-path="url(#clip0_10_802)">
<path d="M7.20268 35.3832L5.38879 39.061L1.33046 39.6527C0.602682 39.7582 0.311016 40.6554 0.838794 41.1693L3.7749 44.0304L3.08046 48.0721C2.95546 48.8027 3.7249 49.3499 4.36935 49.0082L7.99991 47.0999L11.6305 49.0082C12.2749 49.3471 13.0443 48.8027 12.9193 48.0721L12.2249 44.0304L15.161 41.1693C15.6888 40.6554 15.3971 39.7582 14.6693 39.6527L10.611 39.061L8.79713 35.3832C8.47213 34.7277 7.53046 34.7193 7.20268 35.3832Z" fill="#FF9900"/>
</g>
<g clip-path="url(#clip1_10_802)">
<path d="M30.2027 35.3832L28.3888 39.061L24.3305 39.6527C23.6027 39.7582 23.311 40.6554 23.8388 41.1693L26.7749 44.0304L26.0805 48.0721C25.9555 48.8027 26.7249 49.3499 27.3693 49.0082L30.9999 47.0999L34.6305 49.0082C35.2749 49.3471 36.0443 48.8027 35.9193 48.0721L35.2249 44.0304L38.161 41.1693C38.6888 40.6554 38.3971 39.7582 37.6693 39.6527L33.611 39.061L31.7971 35.3832C31.4721 34.7277 30.5305 34.7193 30.2027 35.3832Z" fill="#FF9900"/>
</g>
<g clip-path="url(#clip2_10_802)">
<path d="M53.2027 35.3832L51.3888 39.061L47.3305 39.6527C46.6027 39.7582 46.311 40.6554 46.8388 41.1693L49.7749 44.0304L49.0805 48.0721C48.9555 48.8027 49.7249 49.3499 50.3693 49.0082L53.9999 47.0999L57.6305 49.0082C58.2749 49.3471 59.0443 48.8027 58.9193 48.0721L58.2249 44.0304L61.161 41.1693C61.6888 40.6554 61.3971 39.7582 60.6693 39.6527L56.611 39.061L54.7971 35.3832C54.4721 34.7277 53.5305 34.7193 53.2027 35.3832Z" fill="#FF9900"/>
</g>
<g clip-path="url(#clip3_10_802)">
<path d="M76.2027 35.3832L74.3888 39.061L70.3305 39.6527C69.6027 39.7582 69.311 40.6554 69.8388 41.1693L72.7749 44.0304L72.0805 48.0721C71.9555 48.8027 72.7249 49.3499 73.3693 49.0082L76.9999 47.0999L80.6305 49.0082C81.2749 49.3471 82.0443 48.8027 81.9193 48.0721L81.2249 44.0304L84.161 41.1693C84.6888 40.6554 84.3971 39.7582 83.6693 39.6527L79.611 39.061L77.7971 35.3832C77.4721 34.7277 76.5305 34.7193 76.2027 35.3832Z" fill="#FF9900"/>
</g>
<g clip-path="url(#clip4_10_802)">
<path d="M107.18 39.4779L102.811 38.8417L100.859 34.8898C100.683 34.5367 100.341 34.3582 99.9984 34.3582C99.6581 34.3582 99.3181 34.5343 99.142 34.8898L97.1888 38.8414L92.8193 39.477C92.0357 39.5904 91.7217 40.5543 92.2897 41.1065L95.4506 44.1811L94.7026 48.5238C94.5963 49.1441 95.0915 49.6417 95.6462 49.6417C95.7933 49.6417 95.9447 49.6068 96.09 49.5298L99.999 47.4796L103.908 49.5304C104.053 49.6065 104.204 49.6411 104.35 49.6411C104.906 49.6411 105.402 49.1453 105.295 48.5247L104.548 44.1817L107.71 41.1077C108.278 40.5555 107.964 39.5913 107.18 39.4779ZM103.546 43.1555L103.006 43.6814L103.133 44.4241L103.716 47.8107L100.667 46.211L99.9993 45.8605L100 36.3922L101.523 39.4755L101.857 40.151L102.604 40.2596L106.014 40.7561L103.546 43.1555Z" fill="#FF9900"/>
</g>
<path d="M1.96875 11.75C1.96875 10.1458 2.23958 8.73958 2.78125 7.53125C3.32292 6.32292 4.00781 5.25781 4.83594 4.33594C5.03385 4.11198 5.21094 4.0599 5.36719 4.17969L5.64062 4.39062C5.80208 4.51562 5.79688 4.66927 5.625 4.85156C5.15625 5.35156 4.6849 6.19531 4.21094 7.38281C3.73698 8.5651 3.5 10.0208 3.5 11.75C3.5 13.4792 3.73698 14.9349 4.21094 16.1172C4.6849 17.3047 5.15625 18.1484 5.625 18.6484C5.79688 18.8307 5.80208 18.9844 5.64062 19.1094L5.36719 19.3203C5.21094 19.4401 5.03385 19.388 4.83594 19.1641C4.00781 18.2422 3.32292 17.1771 2.78125 15.9688C2.23958 14.7604 1.96875 13.3542 1.96875 11.75ZM7.08594 13.2344C6.85156 13.2344 6.73438 13.1172 6.73438 12.8828V12.1953C6.73438 12.0286 6.79688 11.849 6.92188 11.6562L11.2109 5.03125C11.3307 4.84375 11.4766 4.75 11.6484 4.75H12.3594C12.599 4.75 12.7188 4.86719 12.7188 5.10156V11.9531H14.0547C14.2891 11.9531 14.4062 12.0703 14.4062 12.3047V12.8828C14.4062 13.1172 14.2917 13.2344 14.0625 13.2344H12.7188V15.6484C12.7188 15.8828 12.6016 16 12.3672 16H11.6953C11.4609 16 11.3438 15.8828 11.3438 15.6484V13.2344H7.08594ZM8.13281 11.9531H11.3438V7.46094C11.3438 7.30469 11.349 7.14844 11.3594 6.99219H11.3438L8.13281 11.9531ZM16.8125 16C16.5781 16 16.4609 15.8828 16.4609 15.6484V14.6953C16.4609 14.4609 16.5781 14.3438 16.8125 14.3438H17.7188C17.9531 14.3438 18.0703 14.4609 18.0703 14.6953V15.6484C18.0703 16.1953 18.0104 16.6719 17.8906 17.0781C17.776 17.4896 17.5469 17.849 17.2031 18.1562C17.0885 18.2552 16.9922 18.2682 16.9141 18.1953L16.5625 17.8672C16.4844 17.7943 16.5026 17.7057 16.6172 17.6016C16.7943 17.4453 16.9375 17.2188 17.0469 16.9219C17.1615 16.6302 17.2188 16.3229 17.2188 16H16.8125ZM20.7109 14.7266C20.513 14.4661 20.4896 14.2682 20.6406 14.1328L21.125 13.7031C21.3021 13.5469 21.5078 13.612 21.7422 13.8984C21.8828 14.0703 22.1302 14.3073 22.4844 14.6094C22.8385 14.9115 23.2995 15.0625 23.8672 15.0625C24.612 15.0625 25.1719 14.8333 25.5469 14.375C25.9271 13.9167 26.1172 13.3099 26.1172 12.5547C26.1172 11.8411 25.9557 11.2786 25.6328 10.8672C25.3099 10.4557 24.8255 10.25 24.1797 10.25C23.7786 10.25 23.4453 10.2891 23.1797 10.3672C22.9141 10.4453 22.638 10.6094 22.3516 10.8594C22.1536 11.0312 21.9453 11.1172 21.7266 11.1172H21.3594C21.125 11.1172 21.0078 11 21.0078 10.7656V5.24219C21.0078 5.00781 21.125 4.89062 21.3594 4.89062H26.75C26.9844 4.89062 27.1016 5.00781 27.1016 5.24219V5.82031C27.1016 6.05469 26.9844 6.17188 26.75 6.17188H22.3828V9.25781C22.3828 9.41406 22.3776 9.57031 22.3672 9.72656H22.3984C22.6901 9.48177 23.0312 9.3125 23.4219 9.21875C23.8125 9.125 24.1745 9.07812 24.5078 9.07812C25.4766 9.07812 26.2422 9.40104 26.8047 10.0469C27.3672 10.6927 27.6484 11.5391 27.6484 12.5859C27.6484 13.7266 27.3099 14.6198 26.6328 15.2656C25.9609 15.9115 25.0443 16.2344 23.8828 16.2344C23.0339 16.2344 22.349 16.0599 21.8281 15.7109C21.3125 15.3568 20.9401 15.0286 20.7109 14.7266ZM28.5859 19.0547C28.4089 18.9818 28.3646 18.8359 28.4531 18.6172L34.0391 4.78125C34.1276 4.5625 34.2604 4.48958 34.4375 4.5625L34.7891 4.70312C34.9557 4.77083 34.9948 4.91406 34.9062 5.13281L29.3203 18.9688C29.2318 19.1875 29.1042 19.263 28.9375 19.1953L28.5859 19.0547ZM35.9453 14.7266C35.7474 14.4661 35.724 14.2682 35.875 14.1328L36.3594 13.7031C36.5365 13.5469 36.7422 13.612 36.9766 13.8984C37.1172 14.0703 37.3646 14.3073 37.7188 14.6094C38.0729 14.9115 38.5339 15.0625 39.1016 15.0625C39.8464 15.0625 40.4062 14.8333 40.7812 14.375C41.1615 13.9167 41.3516 13.3099 41.3516 12.5547C41.3516 11.8411 41.1901 11.2786 40.8672 10.8672C40.5443 10.4557 40.0599 10.25 39.4141 10.25C39.013 10.25 38.6797 10.2891 38.4141 10.3672C38.1484 10.4453 37.8724 10.6094 37.5859 10.8594C37.388 11.0312 37.1797 11.1172 36.9609 11.1172H36.5938C36.3594 11.1172 36.2422 11 36.2422 10.7656V5.24219C36.2422 5.00781 36.3594 4.89062 36.5938 4.89062H41.9844C42.2188 4.89062 42.3359 5.00781 42.3359 5.24219V5.82031C42.3359 6.05469 42.2188 6.17188 41.9844 6.17188H37.6172V9.25781C37.6172 9.41406 37.612 9.57031 37.6016 9.72656H37.6328C37.9245 9.48177 38.2656 9.3125 38.6562 9.21875C39.0469 9.125 39.4089 9.07812 39.7422 9.07812C40.7109 9.07812 41.4766 9.40104 42.0391 10.0469C42.6016 10.6927 42.8828 11.5391 42.8828 12.5859C42.8828 13.7266 42.5443 14.6198 41.8672 15.2656C41.1953 15.9115 40.2786 16.2344 39.1172 16.2344C38.2682 16.2344 37.5833 16.0599 37.0625 15.7109C36.5469 15.3568 36.1745 15.0286 35.9453 14.7266ZM44.3359 19.1094C44.1745 18.9844 44.1797 18.8307 44.3516 18.6484C44.8203 18.1484 45.2917 17.3047 45.7656 16.1172C46.2396 14.9349 46.4766 13.4792 46.4766 11.75C46.4766 10.0208 46.2396 8.5651 45.7656 7.38281C45.2917 6.19531 44.8203 5.35156 44.3516 4.85156C44.1797 4.66927 44.1745 4.51562 44.3359 4.39062L44.6094 4.17969C44.7656 4.0599 44.9427 4.11198 45.1406 4.33594C45.9688 5.25781 46.6536 6.32292 47.1953 7.53125C47.737 8.73958 48.0078 10.1458 48.0078 11.75C48.0078 13.3542 47.737 14.7604 47.1953 15.9688C46.6536 17.1771 45.9688 18.2422 45.1406 19.1641C44.9427 19.388 44.7656 19.4401 44.6094 19.3203L44.3359 19.1094ZM55.7812 16C55.5208 16 55.3906 15.8568 55.3906 15.5703V5.22656C55.3906 4.9401 55.5208 4.79688 55.7812 4.79688H59.5547C61.0599 4.79688 62.1484 5.07812 62.8203 5.64062C63.4974 6.20312 63.8359 6.94531 63.8359 7.86719C63.8359 8.67969 63.5625 9.36198 63.0156 9.91406C62.474 10.4661 61.7005 10.7839 60.6953 10.8672V10.8828C61.2266 11.2786 61.5781 11.5807 61.75 11.7891C61.9219 11.9922 62.1146 12.2682 62.3281 12.6172L64.0938 15.4844C64.3073 15.8281 64.2604 16 63.9531 16H63.0625C62.8177 16 62.6354 15.8984 62.5156 15.6953L60.8906 12.9062C60.6562 12.5052 60.3203 12.112 59.8828 11.7266C59.4453 11.3411 58.901 11.1484 58.25 11.1484H56.8906V15.5703C56.8906 15.8568 56.7604 16 56.5 16H55.7812ZM56.8906 9.86719H59.1484C60.1641 9.86719 60.9453 9.73438 61.4922 9.46875C62.0391 9.19792 62.3125 8.63281 62.3125 7.77344C62.3125 7.11719 62.0625 6.67188 61.5625 6.4375C61.0625 6.19792 60.3828 6.07812 59.5234 6.07812H56.8906V9.86719ZM65.6172 13.8125C65.6172 12.8854 66.0495 12.2057 66.9141 11.7734C67.7839 11.3411 69.0807 11.0885 70.8047 11.0156V10.4844C70.8047 9.99479 70.6927 9.57292 70.4688 9.21875C70.25 8.85938 69.8125 8.67969 69.1562 8.67969C68.7396 8.67969 68.4062 8.72135 68.1562 8.80469C67.9062 8.88281 67.6771 8.98958 67.4688 9.125C67.2656 9.25521 67.0703 9.42448 66.8828 9.63281C66.7422 9.78906 66.6094 9.79688 66.4844 9.65625L66.0781 9.1875C65.9635 9.05729 66.0026 8.90104 66.1953 8.71875C66.4714 8.45833 66.7396 8.26302 67 8.13281C67.2604 8.0026 67.5833 7.89323 67.9688 7.80469C68.3594 7.71094 68.7552 7.66406 69.1562 7.66406C70.2448 7.66406 71.0208 7.94531 71.4844 8.50781C71.9479 9.0651 72.1797 9.83073 72.1797 10.8047V15.6484C72.1797 15.8828 72.0625 16 71.8281 16H71.125C70.9219 16 70.8203 15.8828 70.8203 15.6484V15.2656H70.8047C70.3932 15.5885 69.9896 15.8151 69.5938 15.9453C69.2031 16.0703 68.7656 16.1328 68.2812 16.1328C67.4271 16.1328 66.7682 15.9297 66.3047 15.5234C65.8464 15.112 65.6172 14.5417 65.6172 13.8125ZM67.0391 13.8438C67.0391 14.1667 67.1068 14.4271 67.2422 14.625C67.3776 14.8177 67.5651 14.9427 67.8047 15C68.0443 15.0521 68.2943 15.0781 68.5547 15.0781C68.9557 15.0781 69.3359 15.0391 69.6953 14.9609C70.0547 14.8828 70.4245 14.6771 70.8047 14.3438V12.0391C69.7526 12.1172 69.0026 12.2135 68.5547 12.3281C68.1068 12.4375 67.7422 12.6302 67.4609 12.9062C67.1797 13.1771 67.0391 13.4896 67.0391 13.8438ZM74.0078 8.82812C73.7734 8.82812 73.6562 8.73698 73.6562 8.55469V8.07031C73.6562 7.88802 73.7734 7.79688 74.0078 7.79688H74.9297V7.09375C74.9297 6.98958 74.9557 6.89062 75.0078 6.79688L75.5547 5.80469C75.6536 5.6224 75.7344 5.53125 75.7969 5.53125H76.0703C76.2266 5.53125 76.3047 5.6224 76.3047 5.80469V7.79688H77.9688C78.2031 7.79688 78.3203 7.88802 78.3203 8.07031V8.55469C78.3203 8.73698 78.2031 8.82812 77.9688 8.82812H76.3047V13.8047C76.3047 14.3516 76.3854 14.7083 76.5469 14.875C76.7135 15.0365 76.9115 15.1172 77.1406 15.1172C77.3177 15.1172 77.5286 15.0651 77.7734 14.9609C78.0234 14.8568 78.1953 14.7682 78.2891 14.6953C78.3828 14.6224 78.4557 14.6458 78.5078 14.7656L78.7656 15.3672C78.8073 15.4714 78.776 15.5547 78.6719 15.6172C78.4688 15.737 78.1719 15.8542 77.7812 15.9688C77.3906 16.0781 77 16.1328 76.6094 16.1328C76.0677 16.1328 75.651 15.9375 75.3594 15.5469C75.0729 15.1562 74.9297 14.6042 74.9297 13.8906V8.82812H74.0078ZM80.6797 16C80.4453 16 80.3281 15.8828 80.3281 15.6484V8.14844C80.3281 7.91406 80.4453 7.79688 80.6797 7.79688H81.3516C81.5859 7.79688 81.7031 7.91406 81.7031 8.14844V15.6484C81.7031 15.8828 81.5859 16 81.3516 16H80.6797ZM80.6797 6.3125C80.4453 6.3125 80.3281 6.19531 80.3281 5.96094V5.28906C80.3281 5.05469 80.4453 4.9375 80.6797 4.9375H81.3516C81.5859 4.9375 81.7031 5.05469 81.7031 5.28906V5.96094C81.7031 6.19531 81.5859 6.3125 81.3516 6.3125H80.6797ZM84.2734 16C84.0391 16 83.9219 15.8828 83.9219 15.6484V8.14844C83.9219 7.91406 84.0391 7.79688 84.2734 7.79688H84.9297C85.1641 7.79688 85.2812 7.91406 85.2812 8.14844V8.77344H85.3125C85.651 8.39844 86.0156 8.11979 86.4062 7.9375C86.7969 7.75521 87.2839 7.66406 87.8672 7.66406C88.8151 7.66406 89.4948 7.93229 89.9062 8.46875C90.3229 9 90.5312 9.72917 90.5312 10.6562V15.6484C90.5312 15.8828 90.4141 16 90.1797 16H89.5078C89.2734 16 89.1562 15.8828 89.1562 15.6484V11.0312C89.1562 10.0104 88.987 9.36458 88.6484 9.09375C88.3099 8.81771 87.8802 8.67969 87.3594 8.67969C86.6823 8.67969 86.1693 8.88281 85.8203 9.28906C85.4714 9.6901 85.2969 10.3802 85.2969 11.3594V15.6484C85.2969 15.8828 85.1797 16 84.9453 16H84.2734ZM92.2891 11.8984C92.2891 10.7786 92.5599 9.79427 93.1016 8.94531C93.6432 8.09115 94.4349 7.66406 95.4766 7.66406C96.0755 7.66406 96.5547 7.76302 96.9141 7.96094C97.2734 8.15885 97.5964 8.42969 97.8828 8.77344H97.8984L97.9453 8.14844C97.9609 7.91406 98.0625 7.79688 98.25 7.79688H98.9062C99.1406 7.79688 99.2578 7.91406 99.2578 8.14844V16.0625C99.2578 17.0625 99.026 17.8438 98.5625 18.4062C98.1042 18.974 97.1953 19.2578 95.8359 19.2578C94.9245 19.2578 94.2422 19.1536 93.7891 18.9453C93.3359 18.7422 93.013 18.526 92.8203 18.2969C92.6797 18.125 92.6719 17.9792 92.7969 17.8594L93.2266 17.4375C93.3464 17.3229 93.513 17.3594 93.7266 17.5469C94.0026 17.7969 94.2682 17.974 94.5234 18.0781C94.7786 18.1875 95.2188 18.2422 95.8438 18.2422C96.5521 18.2422 97.0677 18.0911 97.3906 17.7891C97.7188 17.487 97.8828 16.862 97.8828 15.9141V15.4453C97.8828 15.2839 97.888 15.125 97.8984 14.9688H97.8828C97.612 15.3281 97.2917 15.612 96.9219 15.8203C96.5573 16.0286 96.0755 16.1328 95.4766 16.1328C94.4349 16.1328 93.6432 15.7083 93.1016 14.8594C92.5599 14.0052 92.2891 13.0182 92.2891 11.8984ZM93.7422 11.8984C93.7422 12.8568 93.9062 13.6328 94.2344 14.2266C94.5677 14.8203 95.1302 15.1172 95.9219 15.1172C96.4844 15.1172 96.9505 14.9271 97.3203 14.5469C97.6953 14.1615 97.8828 13.5781 97.8828 12.7969V11C97.8828 10.2188 97.6953 9.63802 97.3203 9.25781C96.9505 8.8724 96.4844 8.67969 95.9219 8.67969C95.1302 8.67969 94.5677 8.97656 94.2344 9.57031C93.9062 10.1641 93.7422 10.9401 93.7422 11.8984ZM107 15.1562C106.724 14.9062 106.651 14.6875 106.781 14.5L107.188 13.9141C107.328 13.7109 107.555 13.7266 107.867 13.9609C108.279 14.2682 108.706 14.5208 109.148 14.7188C109.596 14.9167 110.138 15.0156 110.773 15.0156C111.242 15.0156 111.638 14.9453 111.961 14.8047C112.284 14.6641 112.542 14.4635 112.734 14.2031C112.932 13.9375 113.031 13.6172 113.031 13.2422C113.031 12.9714 112.99 12.7214 112.906 12.4922C112.828 12.2578 112.701 12.0625 112.523 11.9062C112.346 11.75 112.161 11.6276 111.969 11.5391C111.651 11.3932 111.174 11.224 110.539 11.0312C109.909 10.8385 109.357 10.6302 108.883 10.4062C108.414 10.1823 108.039 9.91146 107.758 9.59375C107.482 9.27604 107.297 8.95052 107.203 8.61719C107.115 8.27865 107.07 7.89323 107.07 7.46094C107.07 6.79948 107.263 6.22917 107.648 5.75C108.034 5.27083 108.505 4.95312 109.062 4.79688C109.625 4.64062 110.195 4.5625 110.773 4.5625C111.435 4.5625 112.01 4.64844 112.5 4.82031C112.99 4.99219 113.427 5.21615 113.812 5.49219C114.083 5.6849 114.146 5.88802 114 6.10156L113.602 6.67188C113.482 6.84375 113.247 6.80729 112.898 6.5625C112.633 6.375 112.307 6.20052 111.922 6.03906C111.542 5.8724 111.164 5.78906 110.789 5.78906C110.31 5.78906 109.911 5.84635 109.594 5.96094C109.276 6.07031 109.026 6.25781 108.844 6.52344C108.661 6.78906 108.57 7.09635 108.57 7.44531C108.57 7.66406 108.591 7.86719 108.633 8.05469C108.674 8.23698 108.781 8.42448 108.953 8.61719C109.125 8.8099 109.333 8.95833 109.578 9.0625C109.906 9.20312 110.414 9.36979 111.102 9.5625C111.794 9.75 112.398 9.98177 112.914 10.2578C113.393 10.513 113.737 10.7812 113.945 11.0625C114.159 11.3385 114.323 11.6406 114.438 11.9688C114.557 12.2917 114.617 12.6562 114.617 13.0625C114.617 13.8021 114.427 14.4193 114.047 14.9141C113.667 15.4089 113.216 15.7526 112.695 15.9453C112.174 16.138 111.521 16.2344 110.734 16.2344C109.792 16.2344 109.01 16.125 108.391 15.9062C107.771 15.6875 107.307 15.4375 107 15.1562ZM115.977 8.82812C115.742 8.82812 115.625 8.73698 115.625 8.55469V8.07031C115.625 7.88802 115.742 7.79688 115.977 7.79688H116.898V7.09375C116.898 6.98958 116.924 6.89062 116.977 6.79688L117.523 5.80469C117.622 5.6224 117.703 5.53125 117.766 5.53125H118.039C118.195 5.53125 118.273 5.6224 118.273 5.80469V7.79688H119.938C120.172 7.79688 120.289 7.88802 120.289 8.07031V8.55469C120.289 8.73698 120.172 8.82812 119.938 8.82812H118.273V13.8047C118.273 14.3516 118.354 14.7083 118.516 14.875C118.682 15.0365 118.88 15.1172 119.109 15.1172C119.286 15.1172 119.497 15.0651 119.742 14.9609C119.992 14.8568 120.164 14.7682 120.258 14.6953C120.352 14.6224 120.424 14.6458 120.477 14.7656L120.734 15.3672C120.776 15.4714 120.745 15.5547 120.641 15.6172C120.438 15.737 120.141 15.8542 119.75 15.9688C119.359 16.0781 118.969 16.1328 118.578 16.1328C118.036 16.1328 117.62 15.9375 117.328 15.5469C117.042 15.1562 116.898 14.6042 116.898 13.8906V8.82812H115.977ZM121.852 13.8125C121.852 12.8854 122.284 12.2057 123.148 11.7734C124.018 11.3411 125.315 11.0885 127.039 11.0156V10.4844C127.039 9.99479 126.927 9.57292 126.703 9.21875C126.484 8.85938 126.047 8.67969 125.391 8.67969C124.974 8.67969 124.641 8.72135 124.391 8.80469C124.141 8.88281 123.911 8.98958 123.703 9.125C123.5 9.25521 123.305 9.42448 123.117 9.63281C122.977 9.78906 122.844 9.79688 122.719 9.65625L122.312 9.1875C122.198 9.05729 122.237 8.90104 122.43 8.71875C122.706 8.45833 122.974 8.26302 123.234 8.13281C123.495 8.0026 123.818 7.89323 124.203 7.80469C124.594 7.71094 124.99 7.66406 125.391 7.66406C126.479 7.66406 127.255 7.94531 127.719 8.50781C128.182 9.0651 128.414 9.83073 128.414 10.8047V15.6484C128.414 15.8828 128.297 16 128.062 16H127.359C127.156 16 127.055 15.8828 127.055 15.6484V15.2656H127.039C126.628 15.5885 126.224 15.8151 125.828 15.9453C125.438 16.0703 125 16.1328 124.516 16.1328C123.661 16.1328 123.003 15.9297 122.539 15.5234C122.081 15.112 121.852 14.5417 121.852 13.8125ZM123.273 13.8438C123.273 14.1667 123.341 14.4271 123.477 14.625C123.612 14.8177 123.799 14.9427 124.039 15C124.279 15.0521 124.529 15.0781 124.789 15.0781C125.19 15.0781 125.57 15.0391 125.93 14.9609C126.289 14.8828 126.659 14.6771 127.039 14.3438V12.0391C125.987 12.1172 125.237 12.2135 124.789 12.3281C124.341 12.4375 123.977 12.6302 123.695 12.9062C123.414 13.1771 123.273 13.4896 123.273 13.8438ZM130.992 16C130.758 16 130.641 15.8828 130.641 15.6484V8.14844C130.641 7.91406 130.758 7.79688 130.992 7.79688H131.648C131.883 7.79688 132 7.91406 132 8.14844V9.08594H132.031C132.281 8.61719 132.576 8.26302 132.914 8.02344C133.253 7.78385 133.674 7.66406 134.18 7.66406C134.513 7.66406 134.747 7.69271 134.883 7.75C135.003 7.79688 135.047 7.875 135.016 7.98438L134.836 8.625C134.81 8.71875 134.742 8.75521 134.633 8.73438C134.451 8.69792 134.279 8.67969 134.117 8.67969C133.508 8.67969 133.005 8.95573 132.609 9.50781C132.214 10.0547 132.016 10.8021 132.016 11.75V15.6484C132.016 15.8828 131.898 16 131.664 16H130.992ZM141.961 16C141.727 16 141.609 15.8828 141.609 15.6484V4.82031C141.609 4.58594 141.727 4.46875 141.961 4.46875H142.633C142.867 4.46875 142.984 4.58594 142.984 4.82031V8.29688C142.984 8.45833 142.979 8.61719 142.969 8.77344H142.984C143.271 8.42969 143.594 8.15885 143.953 7.96094C144.312 7.76302 144.792 7.66406 145.391 7.66406C146.432 7.66406 147.224 8.09115 147.766 8.94531C148.307 9.79427 148.578 10.7786 148.578 11.8984C148.578 13.0182 148.307 14.0052 147.766 14.8594C147.224 15.7083 146.432 16.1328 145.391 16.1328C144.792 16.1328 144.312 16.0339 143.953 15.8359C143.594 15.638 143.271 15.3672 142.984 15.0234H142.969L142.922 15.6484C142.906 15.8828 142.805 16 142.617 16H141.961ZM142.984 12.7969C142.984 13.5781 143.169 14.1615 143.539 14.5469C143.914 14.9271 144.383 15.1172 144.945 15.1172C145.737 15.1172 146.297 14.8203 146.625 14.2266C146.958 13.6328 147.125 12.8568 147.125 11.8984C147.125 10.9401 146.958 10.1641 146.625 9.57031C146.297 8.97656 145.737 8.67969 144.945 8.67969C144.383 8.67969 143.914 8.8724 143.539 9.25781C143.169 9.63802 142.984 10.2188 142.984 11V12.7969ZM149.789 8.17969C149.695 7.92448 149.766 7.79688 150 7.79688H150.852C151.023 7.79688 151.141 7.89844 151.203 8.10156L152.844 13.2578C152.891 13.3984 152.961 13.6198 153.055 13.9219C153.154 14.2188 153.224 14.4844 153.266 14.7188H153.281C153.323 14.4844 153.372 14.2734 153.43 14.0859C153.492 13.8932 153.583 13.6172 153.703 13.2578L155.359 8.10156C155.427 7.89844 155.544 7.79688 155.711 7.79688H156.562C156.797 7.79688 156.867 7.92448 156.773 8.17969L154.141 15.5234C153.646 16.9036 153.203 17.8698 152.812 18.4219C152.422 18.9792 151.839 19.2578 151.062 19.2578C150.656 19.2578 150.333 19.1979 150.094 19.0781C149.984 19.026 149.948 18.9453 149.984 18.8359L150.188 18.2031C150.224 18.0938 150.294 18.0625 150.398 18.1094C150.612 18.1979 150.818 18.2422 151.016 18.2422C151.38 18.2422 151.677 18.0443 151.906 17.6484C152.135 17.2578 152.318 16.8646 152.453 16.4688L152.609 16.0078L149.789 8.17969ZM163.031 10.3984C163.031 8.57552 163.482 7.14844 164.383 6.11719C165.289 5.08073 166.589 4.5625 168.281 4.5625C169.271 4.5625 170.089 4.73177 170.734 5.07031C171.38 5.40365 171.844 5.86198 172.125 6.44531C172.271 6.7474 172.247 6.95573 172.055 7.07031L171.438 7.42969C171.229 7.54948 171.044 7.45052 170.883 7.13281C170.711 6.80469 170.43 6.4974 170.039 6.21094C169.648 5.92448 169.089 5.78125 168.359 5.78125C167.057 5.78125 166.109 6.1875 165.516 7C164.927 7.80729 164.633 8.9401 164.633 10.3984C164.633 11.8568 164.927 12.9922 165.516 13.8047C166.109 14.612 167.057 15.0156 168.359 15.0156C169.109 15.0156 169.708 14.8438 170.156 14.5C170.609 14.1562 170.938 13.7969 171.141 13.4219C171.302 13.1198 171.49 13.0286 171.703 13.1484L172.352 13.5156C172.539 13.625 172.555 13.8333 172.398 14.1406C172.091 14.7396 171.591 15.2396 170.898 15.6406C170.206 16.0365 169.333 16.2344 168.281 16.2344C166.589 16.2344 165.289 15.7188 164.383 14.6875C163.482 13.651 163.031 12.2214 163.031 10.3984ZM174.727 16C174.492 16 174.375 15.8828 174.375 15.6484V5.89844C174.375 5.79427 174.401 5.69531 174.453 5.60156L175 4.60938C175.099 4.42708 175.18 4.33594 175.242 4.33594H175.516C175.672 4.33594 175.75 4.42708 175.75 4.60938V15.6484C175.75 15.8828 175.633 16 175.398 16H174.727ZM178.32 16C178.086 16 177.969 15.8828 177.969 15.6484V8.14844C177.969 7.91406 178.086 7.79688 178.32 7.79688H178.992C179.227 7.79688 179.344 7.91406 179.344 8.14844V15.6484C179.344 15.8828 179.227 16 178.992 16H178.32ZM178.32 6.3125C178.086 6.3125 177.969 6.19531 177.969 5.96094V5.28906C177.969 5.05469 178.086 4.9375 178.32 4.9375H178.992C179.227 4.9375 179.344 5.05469 179.344 5.28906V5.96094C179.344 6.19531 179.227 6.3125 178.992 6.3125H178.32ZM181.117 11.8984C181.117 10.6068 181.44 9.57812 182.086 8.8125C182.732 8.04688 183.656 7.66406 184.859 7.66406C185.859 7.66406 186.688 8.01562 187.344 8.71875C188.005 9.41667 188.336 10.5339 188.336 12.0703C188.336 12.3047 188.229 12.4219 188.016 12.4219H182.57C182.659 13.4271 182.93 14.1276 183.383 14.5234C183.836 14.9141 184.349 15.1094 184.922 15.1094C185.526 15.1094 185.99 15.0078 186.312 14.8047C186.635 14.6016 186.872 14.401 187.023 14.2031C187.19 13.9844 187.352 13.9427 187.508 14.0781L187.969 14.4766C188.089 14.5807 188.089 14.724 187.969 14.9062C187.87 15.0573 187.586 15.2995 187.117 15.6328C186.654 15.9661 185.922 16.1328 184.922 16.1328C183.62 16.1328 182.659 15.75 182.039 14.9844C181.424 14.2188 181.117 13.1901 181.117 11.8984ZM182.539 11.4062H186.953C186.932 10.6771 186.745 10.0391 186.391 9.49219C186.036 8.9401 185.516 8.66406 184.828 8.66406C184.224 8.66406 183.711 8.86719 183.289 9.27344C182.867 9.67448 182.617 10.3854 182.539 11.4062ZM190.492 16C190.258 16 190.141 15.8828 190.141 15.6484V8.14844C190.141 7.91406 190.258 7.79688 190.492 7.79688H191.148C191.383 7.79688 191.5 7.91406 191.5 8.14844V8.77344H191.531C191.87 8.39844 192.234 8.11979 192.625 7.9375C193.016 7.75521 193.503 7.66406 194.086 7.66406C195.034 7.66406 195.714 7.93229 196.125 8.46875C196.542 9 196.75 9.72917 196.75 10.6562V15.6484C196.75 15.8828 196.633 16 196.398 16H195.727C195.492 16 195.375 15.8828 195.375 15.6484V11.0312C195.375 10.0104 195.206 9.36458 194.867 9.09375C194.529 8.81771 194.099 8.67969 193.578 8.67969C192.901 8.67969 192.388 8.88281 192.039 9.28906C191.69 9.6901 191.516 10.3802 191.516 11.3594V15.6484C191.516 15.8828 191.398 16 191.164 16H190.492ZM198.555 8.82812C198.32 8.82812 198.203 8.73698 198.203 8.55469V8.07031C198.203 7.88802 198.32 7.79688 198.555 7.79688H199.477V7.09375C199.477 6.98958 199.503 6.89062 199.555 6.79688L200.102 5.80469C200.201 5.6224 200.281 5.53125 200.344 5.53125H200.617C200.773 5.53125 200.852 5.6224 200.852 5.80469V7.79688H202.516C202.75 7.79688 202.867 7.88802 202.867 8.07031V8.55469C202.867 8.73698 202.75 8.82812 202.516 8.82812H200.852V13.8047C200.852 14.3516 200.932 14.7083 201.094 14.875C201.26 15.0365 201.458 15.1172 201.688 15.1172C201.865 15.1172 202.076 15.0651 202.32 14.9609C202.57 14.8568 202.742 14.7682 202.836 14.6953C202.93 14.6224 203.003 14.6458 203.055 14.7656L203.312 15.3672C203.354 15.4714 203.323 15.5547 203.219 15.6172C203.016 15.737 202.719 15.8542 202.328 15.9688C201.938 16.0781 201.547 16.1328 201.156 16.1328C200.615 16.1328 200.198 15.9375 199.906 15.5469C199.62 15.1562 199.477 14.6042 199.477 13.8906V8.82812H198.555ZM204.555 15.2344C204.393 15.0833 204.359 14.9427 204.453 14.8125L204.805 14.3203C204.919 14.1641 205.089 14.1719 205.312 14.3438C205.62 14.5781 205.961 14.7656 206.336 14.9062C206.716 15.0469 207.148 15.1172 207.633 15.1172C207.919 15.1172 208.174 15.0833 208.398 15.0156C208.622 14.9427 208.818 14.8099 208.984 14.6172C209.156 14.4245 209.242 14.1667 209.242 13.8438C209.242 13.6562 209.201 13.4792 209.117 13.3125C209.039 13.1458 208.914 13.013 208.742 12.9141C208.576 12.8099 208.411 12.7292 208.25 12.6719C207.984 12.5729 207.719 12.4922 207.453 12.4297C207.193 12.362 206.849 12.2604 206.422 12.125C206.135 12.0365 205.865 11.9115 205.609 11.75C205.354 11.5833 205.13 11.3594 204.938 11.0781C204.75 10.7969 204.656 10.4089 204.656 9.91406C204.656 9.40885 204.81 8.97396 205.117 8.60938C205.424 8.24479 205.81 7.9974 206.273 7.86719C206.737 7.73177 207.188 7.66406 207.625 7.66406C208.271 7.66406 208.789 7.73958 209.18 7.89062C209.576 8.03646 209.917 8.21094 210.203 8.41406C210.37 8.53385 210.393 8.67188 210.273 8.82812L209.922 9.29688C209.812 9.44792 209.643 9.44271 209.414 9.28125C209.221 9.14583 208.948 9.01823 208.594 8.89844C208.24 8.77865 207.93 8.71875 207.664 8.71875C207.336 8.71875 207.055 8.75521 206.82 8.82812C206.586 8.90104 206.396 9.02604 206.25 9.20312C206.104 9.38021 206.031 9.58854 206.031 9.82812C206.031 10.0104 206.06 10.1745 206.117 10.3203C206.174 10.4609 206.281 10.5911 206.438 10.7109C206.594 10.8307 206.812 10.9271 207.094 11C207.531 11.1146 207.93 11.2188 208.289 11.3125C208.654 11.4062 208.982 11.5208 209.273 11.6562C209.654 11.8333 209.945 12.0286 210.148 12.2422C210.357 12.4557 210.5 12.6875 210.578 12.9375C210.656 13.1823 210.695 13.4557 210.695 13.7578C210.695 14.3151 210.529 14.7865 210.195 15.1719C209.867 15.5573 209.5 15.8151 209.094 15.9453C208.688 16.0703 208.198 16.1328 207.625 16.1328C206.849 16.1328 206.182 16.0234 205.625 15.8047C205.073 15.5807 204.716 15.3906 204.555 15.2344Z" fill="white"/>
<path d="M126.348 46C126.074 46 125.938 45.8535 125.938 45.5605V38.0371C125.938 37.7441 126.074 37.5977 126.348 37.5977H128.047C128.273 37.5977 128.436 37.7539 128.533 38.0664L130.121 43.2051C130.191 43.4277 130.24 43.6113 130.268 43.7559C130.295 43.8965 130.318 44.0645 130.338 44.2598H130.373C130.393 44.0645 130.416 43.8965 130.443 43.7559C130.471 43.6113 130.52 43.4277 130.59 43.2051L132.178 38.0664C132.275 37.7539 132.438 37.5977 132.664 37.5977H134.363C134.637 37.5977 134.773 37.7441 134.773 38.0371V45.5605C134.773 45.8535 134.637 46 134.363 46H133.473C133.199 46 133.062 45.8535 133.062 45.5605V40.7207C133.062 40.4863 133.072 40.252 133.092 40.0176H133.051L131.357 45.5254C131.26 45.8418 131.092 46 130.854 46H129.857C129.619 46 129.451 45.8418 129.354 45.5254L127.66 40.0176H127.619C127.639 40.252 127.648 40.4863 127.648 40.7207V45.5605C127.648 45.8535 127.512 46 127.238 46H126.348ZM136.18 42.9238C136.18 41.9277 136.436 41.1465 136.947 40.5801C137.463 40.0137 138.229 39.7305 139.244 39.7305C140.26 39.7305 141.023 40.0137 141.535 40.5801C142.051 41.1465 142.309 41.9277 142.309 42.9238C142.309 43.9199 142.051 44.7012 141.535 45.2676C141.023 45.834 140.26 46.1172 139.244 46.1172C138.229 46.1172 137.463 45.834 136.947 45.2676C136.436 44.7012 136.18 43.9199 136.18 42.9238ZM137.914 42.9238C137.914 43.666 138.027 44.1934 138.254 44.5059C138.484 44.8145 138.814 44.9688 139.244 44.9688C139.674 44.9688 140.002 44.8145 140.229 44.5059C140.459 44.1934 140.574 43.666 140.574 42.9238C140.574 42.1816 140.459 41.6562 140.229 41.3477C140.002 41.0352 139.674 40.8789 139.244 40.8789C138.814 40.8789 138.484 41.0352 138.254 41.3477C138.027 41.6562 137.914 42.1816 137.914 42.9238ZM143.926 46C143.691 46 143.574 45.8828 143.574 45.6484V40.1992C143.574 39.9648 143.691 39.8477 143.926 39.8477H144.852C145.086 39.8477 145.203 39.9648 145.203 40.1992V40.6797H145.227C145.328 40.4297 145.498 40.209 145.736 40.0176C145.975 39.8262 146.256 39.7305 146.58 39.7305C146.803 39.7305 146.986 39.7578 147.131 39.8125C147.268 39.8633 147.32 39.957 147.289 40.0938L147.125 40.791C147.09 40.9473 146.984 40.9941 146.809 40.9316C146.707 40.8965 146.609 40.8789 146.516 40.8789C146.141 40.8789 145.83 41.1035 145.584 41.5527C145.338 42.002 145.215 42.6562 145.215 43.5156V45.6484C145.215 45.8828 145.098 46 144.863 46H143.926ZM147.852 42.9238C147.852 41.9355 148.098 41.1562 148.59 40.5859C149.086 40.0156 149.785 39.7305 150.688 39.7305C151.734 39.7305 152.512 40 153.02 40.5391C153.527 41.0781 153.781 41.9453 153.781 43.1406C153.781 43.375 153.672 43.4922 153.453 43.4922H149.586C149.648 44.1406 149.809 44.5488 150.066 44.7168C150.324 44.8848 150.623 44.9688 150.963 44.9688C151.287 44.9688 151.535 44.9258 151.707 44.8398C151.879 44.7539 152.023 44.6367 152.141 44.4883C152.273 44.3164 152.438 44.2891 152.633 44.4062L153.219 44.7637C153.449 44.9043 153.482 45.0723 153.318 45.2676C153.08 45.5527 152.801 45.7656 152.48 45.9062C152.16 46.0469 151.654 46.1172 150.963 46.1172C149.842 46.1172 149.043 45.832 148.566 45.2617C148.09 44.6914 147.852 43.9121 147.852 42.9238ZM149.592 42.3203H152.141C152.141 41.8984 152.035 41.5547 151.824 41.2891C151.613 41.0195 151.277 40.8848 150.816 40.8848C150.449 40.8848 150.158 41.0137 149.943 41.2715C149.729 41.5254 149.611 41.875 149.592 42.3203ZM158.832 42.9238C158.832 42.0645 159.018 41.3184 159.389 40.6855C159.764 40.0488 160.41 39.7305 161.328 39.7305C161.68 39.7305 161.98 39.7812 162.23 39.8828C162.48 39.9844 162.707 40.2031 162.91 40.5391H162.934C162.918 40.3828 162.91 40.2266 162.91 40.0703V37.7031C162.91 37.4688 163.027 37.3516 163.262 37.3516H164.199C164.434 37.3516 164.551 37.4688 164.551 37.7031V45.6484C164.551 45.8828 164.434 46 164.199 46H163.273C163.078 46 162.973 45.8828 162.957 45.6484L162.934 45.3086H162.91C162.707 45.6445 162.48 45.8633 162.23 45.9648C161.98 46.0664 161.68 46.1172 161.328 46.1172C160.41 46.1172 159.764 45.8008 159.389 45.168C159.018 44.5312 158.832 43.7832 158.832 42.9238ZM160.566 42.9238C160.566 43.5488 160.646 44.0469 160.807 44.418C160.971 44.7852 161.316 44.9688 161.844 44.9688C162.137 44.9688 162.387 44.8047 162.594 44.4766C162.805 44.1445 162.91 43.7148 162.91 43.1875V42.6602C162.91 42.1328 162.805 41.7051 162.594 41.377C162.387 41.0449 162.137 40.8789 161.844 40.8789C161.316 40.8789 160.971 41.0645 160.807 41.4355C160.646 41.8027 160.566 42.2988 160.566 42.9238ZM165.816 42.9238C165.816 41.9355 166.062 41.1562 166.555 40.5859C167.051 40.0156 167.75 39.7305 168.652 39.7305C169.699 39.7305 170.477 40 170.984 40.5391C171.492 41.0781 171.746 41.9453 171.746 43.1406C171.746 43.375 171.637 43.4922 171.418 43.4922H167.551C167.613 44.1406 167.773 44.5488 168.031 44.7168C168.289 44.8848 168.588 44.9688 168.928 44.9688C169.252 44.9688 169.5 44.9258 169.672 44.8398C169.844 44.7539 169.988 44.6367 170.105 44.4883C170.238 44.3164 170.402 44.2891 170.598 44.4062L171.184 44.7637C171.414 44.9043 171.447 45.0723 171.283 45.2676C171.045 45.5527 170.766 45.7656 170.445 45.9062C170.125 46.0469 169.619 46.1172 168.928 46.1172C167.807 46.1172 167.008 45.832 166.531 45.2617C166.055 44.6914 165.816 43.9121 165.816 42.9238ZM167.557 42.3203H170.105C170.105 41.8984 170 41.5547 169.789 41.2891C169.578 41.0195 169.242 40.8848 168.781 40.8848C168.414 40.8848 168.123 41.0137 167.908 41.2715C167.693 41.5254 167.576 41.875 167.557 42.3203ZM172.818 41.0195C172.588 41.0195 172.473 40.9219 172.473 40.7266V40.1406C172.473 39.9453 172.588 39.8477 172.818 39.8477H173.217V39.6426C173.217 39.4668 173.258 39.3066 173.34 39.1621L173.791 38.3711C173.877 38.2227 173.979 38.1484 174.096 38.1484H174.506C174.74 38.1484 174.857 38.2656 174.857 38.5V39.8477H175.807C176.037 39.8477 176.152 39.9453 176.152 40.1406V40.7266C176.152 40.9219 176.037 41.0195 175.807 41.0195H174.857V43.9258C174.857 44.3242 174.885 44.6113 174.939 44.7871C174.998 44.959 175.146 45.0449 175.385 45.0449C175.506 45.0449 175.643 45.0254 175.795 44.9863C175.947 44.9434 176.066 44.9023 176.152 44.8633C176.289 44.8008 176.379 44.8457 176.422 44.998L176.598 45.666C176.633 45.7988 176.582 45.8965 176.445 45.959C176.316 46.0176 176.139 46.0703 175.912 46.1172C175.689 46.168 175.465 46.1934 175.238 46.1934C174.68 46.1934 174.203 46.0781 173.809 45.8477C173.414 45.6172 173.217 45.1426 173.217 44.4238V41.0195H172.818ZM177.371 44.3594C177.371 43.5781 177.744 43.0117 178.49 42.6602C179.236 42.3086 180.088 42.1211 181.045 42.0977V41.8633C181.045 41.5039 180.955 41.25 180.775 41.1016C180.596 40.9531 180.346 40.8789 180.025 40.8789C179.799 40.8789 179.598 40.9121 179.422 40.9785C179.25 41.041 179.1 41.1152 178.971 41.2012C178.846 41.2832 178.732 41.3672 178.631 41.4531C178.451 41.6094 178.303 41.6172 178.186 41.4766L177.699 40.8789C177.578 40.7305 177.607 40.5781 177.787 40.4219C177.924 40.3008 178.082 40.1953 178.262 40.1055C178.445 40.0156 178.688 39.9316 178.988 39.8535C179.289 39.7715 179.68 39.7305 180.16 39.7305C180.973 39.7305 181.596 39.918 182.029 40.293C182.467 40.668 182.686 41.2207 182.686 41.9512V45.6484C182.686 45.8828 182.568 46 182.334 46H181.373C181.162 46 181.057 45.8828 181.057 45.6484V45.4727H181.045C180.814 45.6953 180.537 45.8594 180.213 45.9648C179.893 46.0664 179.598 46.1172 179.328 46.1172C178.688 46.1172 178.201 45.9609 177.869 45.6484C177.537 45.332 177.371 44.9023 177.371 44.3594ZM179.105 44.3242C179.105 44.4609 179.133 44.5801 179.188 44.6816C179.242 44.7793 179.328 44.8516 179.445 44.8984C179.562 44.9453 179.693 44.9688 179.838 44.9688C180.037 44.9688 180.23 44.9414 180.418 44.8867C180.605 44.832 180.814 44.7031 181.045 44.5V43.2285C180.389 43.3027 179.949 43.3984 179.727 43.5156C179.504 43.6328 179.344 43.7539 179.246 43.8789C179.152 44.0039 179.105 44.1523 179.105 44.3242ZM184.637 46C184.402 46 184.285 45.8828 184.285 45.6484V40.1992C184.285 39.9648 184.402 39.8477 184.637 39.8477H185.574C185.809 39.8477 185.926 39.9648 185.926 40.1992V45.6484C185.926 45.8828 185.809 46 185.574 46H184.637ZM184.637 38.9453C184.402 38.9453 184.285 38.8281 184.285 38.5938V37.8438C184.285 37.6094 184.402 37.4922 184.637 37.4922H185.574C185.809 37.4922 185.926 37.6094 185.926 37.8438V38.5938C185.926 38.8281 185.809 38.9453 185.574 38.9453H184.637ZM187.871 46C187.637 46 187.52 45.8828 187.52 45.6484V38.7285C187.52 38.5527 187.561 38.3926 187.643 38.248L188.094 37.457C188.18 37.3086 188.281 37.2344 188.398 37.2344H188.809C189.043 37.2344 189.16 37.3516 189.16 37.5859V45.6484C189.16 45.8828 189.043 46 188.809 46H187.871ZM190.631 45.5898C190.439 45.4531 190.387 45.3066 190.473 45.1504L190.771 44.6055C190.877 44.4102 191.041 44.3867 191.264 44.5352C191.486 44.6836 191.748 44.793 192.049 44.8633C192.354 44.9336 192.631 44.9688 192.881 44.9688C193.057 44.9688 193.221 44.9512 193.373 44.916C193.525 44.8809 193.654 44.8125 193.76 44.7109C193.865 44.6094 193.918 44.4609 193.918 44.2656C193.918 44.1484 193.887 44.0488 193.824 43.9668C193.762 43.8848 193.682 43.8223 193.584 43.7793C193.486 43.7363 193.383 43.7012 193.273 43.6738C193.129 43.6387 192.92 43.5801 192.646 43.498C192.377 43.416 192.117 43.3203 191.867 43.2109C191.66 43.1211 191.457 42.9961 191.258 42.8359C191.062 42.6719 190.918 42.4902 190.824 42.291C190.734 42.0918 190.689 41.8457 190.689 41.5527C190.689 41.1582 190.803 40.8125 191.029 40.5156C191.26 40.2188 191.557 40.0137 191.92 39.9004C192.283 39.7871 192.736 39.7305 193.279 39.7305C193.646 39.7305 194.004 39.7832 194.352 39.8887C194.699 39.9941 194.947 40.0938 195.096 40.1875C195.33 40.3359 195.389 40.4941 195.271 40.6621L194.914 41.1836C194.805 41.3398 194.629 41.3516 194.387 41.2188C194.203 41.1172 194.021 41.0352 193.842 40.9727C193.666 40.9102 193.469 40.8789 193.25 40.8789C193.102 40.8789 192.959 40.8945 192.822 40.9258C192.686 40.957 192.568 41.0156 192.471 41.1016C192.377 41.1875 192.33 41.3008 192.33 41.4414C192.33 41.5898 192.373 41.707 192.459 41.793C192.549 41.875 192.65 41.9355 192.764 41.9746C192.881 42.0137 192.992 42.0508 193.098 42.0859C193.316 42.1562 193.537 42.2246 193.76 42.291C193.982 42.3535 194.209 42.4297 194.439 42.5195C194.639 42.5977 194.832 42.709 195.02 42.8535C195.207 42.998 195.344 43.1816 195.43 43.4043C195.516 43.627 195.559 43.8809 195.559 44.166C195.559 44.5449 195.445 44.8965 195.219 45.2207C194.992 45.5449 194.693 45.7754 194.322 45.9121C193.951 46.0488 193.52 46.1172 193.027 46.1172C192.477 46.1172 192.008 46.0781 191.621 46C191.234 45.9219 190.904 45.7852 190.631 45.5898Z" fill="white"/>
<path d="M206.257 42.3984L203.07 45.5859C202.849 45.8062 202.493 45.8062 202.275 45.5859L201.745 45.0562C201.525 44.8359 201.525 44.4796 201.745 44.2617L204.005 42.0023L201.745 39.7429C201.525 39.5226 201.525 39.1664 201.745 38.9484L202.273 38.414C202.493 38.1937 202.849 38.1937 203.067 38.414L206.255 41.6015C206.477 41.8218 206.477 42.1781 206.257 42.3984Z" fill="white"/>
<defs>
<clipPath id="clip0_10_802">
<rect width="16" height="16" fill="white" transform="translate(0 34)"/>
</clipPath>
<clipPath id="clip1_10_802">
<rect width="16" height="16" fill="white" transform="translate(23 34)"/>
</clipPath>
<clipPath id="clip2_10_802">
<rect width="16" height="16" fill="white" transform="translate(46 34)"/>
</clipPath>
<clipPath id="clip3_10_802">
<rect width="16" height="16" fill="white" transform="translate(69 34)"/>
</clipPath>
<clipPath id="clip4_10_802">
<rect width="16" height="16" fill="white" transform="translate(92 34)"/>
</clipPath>
</defs>
</svg>
