<svg width="194" height="88" viewBox="0 0 194 88" fill="none" xmlns="http://www.w3.org/2000/svg">
<path d="M4.99846 1.97904C4.68915 0.633423 3.34757 -0.20668 2.00195 0.102622C0.656331 0.411925 -0.183772 1.75351 0.12553 3.09913L4.99846 1.97904ZM193.398 49.4311C193.498 48.054 192.462 46.8566 191.085 46.7566L168.644 45.1273C167.267 45.0273 166.07 46.0626 165.97 47.4396C165.87 48.8167 166.905 50.0141 168.282 50.1141L188.23 51.5625L186.781 71.5099C186.681 72.887 187.717 74.0844 189.094 74.1844C190.471 74.2844 191.668 73.2491 191.768 71.872L193.398 49.4311ZM0.12553 3.09913C6.19375 29.4989 30.0428 62.3436 64.472 78.2025C99.1749 94.1876 144.352 92.8049 192.539 51.1412L189.269 47.3589C142.431 87.856 99.3293 88.7538 66.5639 73.6612C33.5247 58.4425 10.7155 26.8512 4.99846 1.97904L0.12553 3.09913Z" fill="white"/>
</svg>
