<svg width="126" height="41" viewBox="0 0 126 41" fill="none" xmlns="http://www.w3.org/2000/svg">
<path d="M14.3985 33.205C18.0574 33.1981 21.5638 31.7389 24.1474 29.1482C24.3051 28.9866 24.3929 28.7693 24.3915 28.5435C24.3902 28.3176 24.2998 28.1015 24.1402 27.9418C23.9804 27.782 23.7643 27.6917 23.5383 27.6903C23.3125 27.6889 23.0953 27.7767 22.9336 27.9344C20.6689 30.2043 17.5957 31.4825 14.3893 31.4881C12.8148 31.5088 11.252 31.214 9.79317 30.621C8.3345 30.0279 7.0093 29.1488 5.89585 28.0353C4.78239 26.9218 3.90321 25.5966 3.31015 24.1379C2.71718 22.6792 2.42233 21.1164 2.44304 19.5419C2.45245 16.336 3.73018 13.2641 5.9971 10.9972C8.26407 8.73022 11.336 7.45249 14.5419 7.44305C16.1057 7.42395 17.6579 7.71549 19.1082 8.30076C20.5586 8.88604 21.8783 9.75339 22.9909 10.8526C23.2196 11.0961 23.3442 11.4193 23.338 11.7534C23.3318 12.0874 23.1953 12.4058 22.9577 12.6406C22.7201 12.8756 22.4001 13.0083 22.066 13.0106C21.732 13.0129 21.4102 12.8846 21.1693 12.6531C21.1474 12.6313 21.1243 12.6106 21.1002 12.5913C19.3635 10.9629 17.0646 10.069 14.6841 10.0965C12.1908 10.1047 9.80199 11.0989 8.03895 12.8619C6.27588 14.625 5.2818 17.0138 5.2735 19.5071C5.25869 20.7359 5.48982 21.9552 5.95328 23.0934C6.41672 24.2315 7.10318 25.2655 7.97209 26.1344C8.84101 27.0033 9.87501 27.6898 11.0132 28.1533C12.1512 28.6166 13.3706 28.8478 14.5994 28.833C17.0934 28.828 19.4833 27.8333 21.2443 26.0673C21.5246 25.7921 21.7477 25.464 21.9006 25.1021C22.0533 24.7402 22.133 24.3516 22.1348 23.9587C22.1365 23.5659 22.0605 23.1766 21.911 22.8133C21.7615 22.45 21.5415 22.1199 21.2637 21.8421C20.9859 21.5643 20.6559 21.3443 20.2926 21.1948C19.9293 21.0453 19.54 20.9693 19.1471 20.9711C18.7542 20.9728 18.3656 21.0525 18.0037 21.2052C17.6418 21.3581 17.3137 21.5812 17.0385 21.8615C17.0208 21.8792 17.0053 21.897 16.9897 21.9154C16.9713 21.931 16.9532 21.9469 16.9358 21.9642C16.4555 22.4525 15.841 22.787 15.1701 22.9254C14.4994 23.0639 13.8026 22.9998 13.1682 22.7417C12.5339 22.4834 11.9905 22.0425 11.6071 21.4751C11.2237 20.9075 11.0174 20.2389 11.0147 19.554C11.0119 18.8691 11.2125 18.1988 11.5913 17.6282C11.9701 17.0575 12.5098 16.6122 13.142 16.3488C13.7743 16.0854 14.4705 16.0157 15.1424 16.1486C15.8143 16.2816 16.4316 16.6111 16.9159 17.0954C16.9952 17.1767 17.0899 17.2414 17.1945 17.2858C17.299 17.3302 17.4113 17.3534 17.5249 17.3541C17.6385 17.3548 17.7511 17.333 17.8562 17.2898C17.9613 17.2466 18.0567 17.1831 18.1371 17.1027C18.2174 17.0224 18.281 16.927 18.3241 16.8219C18.3673 16.7168 18.3891 16.6042 18.3884 16.4906C18.3877 16.377 18.3645 16.2647 18.3201 16.1602C18.2757 16.0556 18.211 15.9609 18.1297 15.8816C17.407 15.1668 16.4887 14.6822 15.4909 14.4887C14.493 14.2952 13.4602 14.4017 12.5227 14.7946C11.5853 15.1874 10.7852 15.8492 10.2234 16.6963C9.66159 17.5434 9.36335 18.5379 9.36613 19.5544C9.36899 20.5708 9.6728 21.5636 10.2393 22.4077C10.8057 23.2515 11.6096 23.9089 12.5492 24.2965C13.4887 24.6842 14.5221 24.785 15.5189 24.5859C16.5157 24.3869 17.4312 23.8971 18.1499 23.1784C18.1677 23.1607 18.1832 23.1429 18.1987 23.1244C18.2172 23.1089 18.2353 23.093 18.2527 23.0756C18.3685 22.955 18.5073 22.8587 18.661 22.7924C18.8144 22.7261 18.9798 22.6911 19.1469 22.6894C19.3142 22.6877 19.4802 22.7194 19.635 22.7827C19.7898 22.8459 19.9306 22.9395 20.0488 23.0577C20.1671 23.176 20.2606 23.3167 20.3239 23.4715C20.3871 23.6263 20.4188 23.7923 20.4171 23.9596C20.4154 24.1267 20.3805 24.2921 20.3141 24.4456C20.2478 24.5992 20.1515 24.738 20.0309 24.8539C18.5887 26.2992 16.6318 27.1131 14.5901 27.1166C13.5883 27.1302 12.5941 26.9428 11.6659 26.5657C10.7377 26.1885 9.89458 25.6292 9.18615 24.9207C8.4778 24.2124 7.91845 23.3693 7.54133 22.4411C7.16422 21.5129 6.97681 20.5187 6.99034 19.5169C6.99614 17.4756 7.80968 15.5195 9.25312 14.0761C10.6966 12.6326 12.6526 11.8191 14.6939 11.8133C15.6955 11.8008 16.6894 11.9886 17.6173 12.3656C18.5452 12.7426 19.3884 13.3013 20.0974 14.0088C20.152 14.0631 20.2137 14.1098 20.2809 14.1476C20.8768 14.5851 21.6132 14.787 22.3489 14.7149C23.0845 14.6427 23.7677 14.3014 24.2672 13.7566C24.7667 13.2117 25.0474 12.5015 25.0555 11.7624C25.0636 11.0232 24.7986 10.3071 24.3112 9.75142C24.2918 9.72726 24.271 9.70408 24.2491 9.68207C24.2369 9.66985 24.2247 9.65772 24.2125 9.64549C24.2065 9.63947 24.2006 9.63363 24.1948 9.62778C24.189 9.62193 24.1822 9.61662 24.1762 9.61095C22.9046 8.35917 21.3977 7.37149 19.7426 6.70484C18.0874 6.03818 16.3167 5.70577 14.5324 5.72674C10.8746 5.73868 7.36999 7.19703 4.78346 9.78356C2.197 12.37 0.738688 15.8746 0.726732 19.5324C0.704741 21.334 1.0433 23.1218 1.72268 24.7905C2.40199 26.4592 3.40824 27.9753 4.68224 29.2493C5.95625 30.5233 7.47223 31.5295 9.14107 32.2089C10.8097 32.8882 12.5975 33.2267 14.3991 33.2048L14.3985 33.205Z" fill="#9483FF"/>
<path d="M31.6952 27C31.1483 27 30.8749 26.707 30.8749 26.1211V11.0742C30.8749 10.4883 31.1483 10.1953 31.6952 10.1953H33.4764C34.0233 10.1953 34.2968 10.4883 34.2968 11.0742V26.1211C34.2968 26.707 34.0233 27 33.4764 27H31.6952ZM37.496 21.7734C37.0272 21.7734 36.7928 21.5781 36.7928 21.1875V19.8516C36.7928 19.4609 37.0272 19.2656 37.496 19.2656H43.0507C43.5194 19.2656 43.7538 19.4609 43.7538 19.8516V21.1875C43.7538 21.5781 43.5194 21.7734 43.0507 21.7734H37.496ZM47.0702 27C46.5233 27 46.2499 26.707 46.2499 26.1211V11.0742C46.2499 10.4883 46.5233 10.1953 47.0702 10.1953H51.453C54.2655 10.1953 56.2147 10.6523 57.3007 11.5664C58.3944 12.4805 58.9413 13.7773 58.9413 15.457C58.9413 17.1367 58.3944 18.4336 57.3007 19.3477C56.2147 20.2617 54.2655 20.7188 51.453 20.7188H49.6718V26.1211C49.6718 26.707 49.3983 27 48.8514 27H47.0702ZM49.6718 17.8594H51.4413C53.0038 17.8594 54.0663 17.6758 54.6288 17.3086C55.1913 16.9336 55.4725 16.3164 55.4725 15.457C55.4725 14.5977 55.1913 13.9844 54.6288 13.6172C54.0663 13.2422 53.0038 13.0547 51.4413 13.0547H49.6718V17.8594ZM62.6327 27C62.0858 27 61.8124 26.707 61.8124 26.1211V11.0742C61.8124 10.4883 62.0858 10.1953 62.6327 10.1953H68.0585C70.4725 10.1953 72.2343 10.5703 73.3436 11.3203C74.453 12.0625 75.0077 13.2734 75.0077 14.9531C75.0077 16.2031 74.5585 17.1992 73.66 17.9414C72.7616 18.6836 71.621 19.1758 70.2382 19.418V19.4414C70.9882 19.7227 71.5546 20.1133 71.9374 20.6133C72.3202 21.1133 72.6327 21.5508 72.8749 21.9258L75.453 25.9922C75.8827 26.6641 75.7343 27 75.0077 27H72.9686C72.5389 27 72.1874 26.7695 71.9139 26.3086L69.5468 22.3594C69.2889 21.9375 68.8163 21.4766 68.1288 20.9766C67.4491 20.4688 66.7733 20.2148 66.1014 20.2148H65.2343V26.1211C65.2343 26.707 64.9608 27 64.4139 27H62.6327ZM65.2343 17.3086H67.3319C68.8944 17.3086 70.0038 17.1328 70.66 16.7812C71.3241 16.4219 71.6561 15.8555 71.6561 15.082C71.6561 14.2383 71.3358 13.6914 70.6952 13.4414C70.0624 13.1836 69.1288 13.0547 67.8944 13.0547H65.2343V17.3086ZM79.3671 27C78.8202 27 78.5468 26.707 78.5468 26.1211V11.0742C78.5468 10.4883 78.8202 10.1953 79.3671 10.1953H81.1483C81.6952 10.1953 81.9686 10.4883 81.9686 11.0742V26.1211C81.9686 26.707 81.6952 27 81.1483 27H79.3671ZM86.5389 27C85.9921 27 85.7186 26.707 85.7186 26.1211V11.0742C85.7186 10.4883 85.9921 10.1953 86.5389 10.1953H90.6288C94.2225 10.1953 96.6522 10.9219 97.9178 12.375C99.1913 13.8281 99.828 15.8945 99.828 18.5742C99.828 21.2539 99.1913 23.3281 97.9178 24.7969C96.6522 26.2656 94.2225 27 90.6288 27H86.5389ZM89.1405 24.0938H90.4061C92.828 24.0938 94.3944 23.6445 95.1053 22.7461C95.8163 21.8398 96.1718 20.4492 96.1718 18.5742C96.1718 16.6992 95.8163 15.3164 95.1053 14.4258C94.3944 13.5273 92.828 13.0781 90.4061 13.0781H89.1405V24.0938ZM103.531 27C102.984 27 102.711 26.707 102.711 26.1211V11.0742C102.711 10.4883 102.984 10.1953 103.531 10.1953H113.586C114.172 10.1953 114.465 10.4492 114.465 10.957V12.3398C114.465 12.8477 114.172 13.1016 113.586 13.1016H106.133V16.8281H112.965C113.551 16.8281 113.844 17.082 113.844 17.5898V18.9727C113.844 19.4805 113.551 19.7344 112.965 19.7344H106.133V24.0938H113.961C114.547 24.0938 114.84 24.3477 114.84 24.8555V26.2383C114.84 26.7461 114.547 27 113.961 27H103.531Z" fill="white"/>
</svg>
