<svg width="310" height="73" viewBox="0 0 310 73" fill="none" xmlns="http://www.w3.org/2000/svg">
<circle cx="36.5" cy="36.5" r="36" stroke="white"/>
<path d="M51.25 35.3349C52.9167 36.2972 52.9167 38.7028 51.25 39.6651L32.5 50.4904C30.8333 51.4526 28.75 50.2498 28.75 48.3253L28.75 26.6747C28.75 24.7502 30.8333 23.5474 32.5 24.5096L51.25 35.3349Z" stroke="white" stroke-width="3"/>
<path d="M90.4375 29.6074C90.3646 29.334 90.4238 29.1973 90.6152 29.1973H91.4492C91.5951 29.1973 91.693 29.3021 91.7432 29.5117L93.2676 36.0811C93.3314 36.3454 93.402 36.6325 93.4795 36.9424C93.5615 37.2523 93.6322 37.5439 93.6914 37.8174H93.7256C93.7712 37.5485 93.8236 37.2819 93.8828 37.0176C93.9466 36.7533 94.0173 36.4434 94.0947 36.0879L95.6533 29.5664C95.7126 29.3203 95.8584 29.1973 96.0908 29.1973H97.0342C97.2666 29.1973 97.4124 29.3203 97.4717 29.5664L99.0303 36.0879C99.1077 36.4434 99.1761 36.7533 99.2354 37.0176C99.2992 37.2819 99.3538 37.5485 99.3994 37.8174H99.4336C99.4928 37.5439 99.5612 37.2523 99.6387 36.9424C99.7207 36.6325 99.7936 36.3454 99.8574 36.0811L101.382 29.5117C101.432 29.3021 101.53 29.1973 101.676 29.1973H102.51C102.701 29.1973 102.76 29.334 102.688 29.6074L100.336 38.4736C100.245 38.8245 100.076 39 99.8301 39H98.9756C98.7477 39 98.5859 38.8086 98.4902 38.4258L96.8428 31.8701C96.7607 31.5374 96.7015 31.2663 96.665 31.0566C96.6286 30.8424 96.5967 30.6214 96.5693 30.3936H96.5557C96.5283 30.6214 96.4964 30.8424 96.46 31.0566C96.4235 31.2663 96.3643 31.5374 96.2822 31.8701L94.6348 38.4258C94.5391 38.8086 94.3773 39 94.1494 39H93.2949C93.0488 39 92.8802 38.8245 92.7891 38.4736L90.4375 29.6074ZM103.487 37.0859C103.487 36.2747 103.866 35.68 104.622 35.3018C105.383 34.9235 106.518 34.7025 108.026 34.6387V34.1738C108.026 33.7454 107.928 33.3763 107.732 33.0664C107.541 32.752 107.158 32.5947 106.584 32.5947C106.219 32.5947 105.928 32.6312 105.709 32.7041C105.49 32.7725 105.29 32.8659 105.107 32.9844C104.93 33.0983 104.759 33.2464 104.595 33.4287C104.472 33.5654 104.355 33.5723 104.246 33.4492L103.891 33.0391C103.79 32.9251 103.825 32.7884 103.993 32.6289C104.235 32.401 104.469 32.2301 104.697 32.1162C104.925 32.0023 105.208 31.9066 105.545 31.8291C105.887 31.7471 106.233 31.7061 106.584 31.7061C107.536 31.7061 108.215 31.9521 108.621 32.4443C109.027 32.932 109.229 33.6019 109.229 34.4541V38.6924C109.229 38.8975 109.127 39 108.922 39H108.307C108.129 39 108.04 38.8975 108.04 38.6924V38.3574H108.026C107.666 38.64 107.313 38.8382 106.967 38.9521C106.625 39.0615 106.242 39.1162 105.818 39.1162C105.071 39.1162 104.494 38.9385 104.089 38.583C103.688 38.223 103.487 37.724 103.487 37.0859ZM104.731 37.1133C104.731 37.3958 104.791 37.6237 104.909 37.7969C105.028 37.9655 105.192 38.0749 105.401 38.125C105.611 38.1706 105.83 38.1934 106.058 38.1934C106.409 38.1934 106.741 38.1592 107.056 38.0908C107.37 38.0225 107.694 37.8424 108.026 37.5508V35.5342C107.106 35.6025 106.45 35.6868 106.058 35.7871C105.666 35.8828 105.347 36.0514 105.101 36.293C104.854 36.5299 104.731 36.8034 104.731 37.1133ZM110.829 32.7246C110.624 32.7246 110.521 32.6449 110.521 32.4854V32.0615C110.521 31.902 110.624 31.8223 110.829 31.8223H111.636V31.207C111.636 31.1159 111.659 31.0293 111.704 30.9473L112.183 30.0791C112.269 29.9196 112.34 29.8398 112.395 29.8398H112.634C112.771 29.8398 112.839 29.9196 112.839 30.0791V31.8223H114.295C114.5 31.8223 114.603 31.902 114.603 32.0615V32.4854C114.603 32.6449 114.5 32.7246 114.295 32.7246H112.839V37.0791C112.839 37.5576 112.91 37.8698 113.051 38.0156C113.197 38.1569 113.37 38.2275 113.57 38.2275C113.725 38.2275 113.91 38.182 114.124 38.0908C114.343 37.9997 114.493 37.9222 114.575 37.8584C114.657 37.7946 114.721 37.8151 114.767 37.9199L114.992 38.4463C115.029 38.5374 115.001 38.6104 114.91 38.665C114.732 38.7699 114.473 38.8724 114.131 38.9727C113.789 39.0684 113.447 39.1162 113.105 39.1162C112.632 39.1162 112.267 38.9453 112.012 38.6035C111.761 38.2617 111.636 37.7786 111.636 37.1543V32.7246H110.829ZM115.97 35.4111C115.97 34.3402 116.234 33.4561 116.763 32.7588C117.296 32.057 118.109 31.7061 119.203 31.7061C119.941 31.7061 120.504 31.8382 120.892 32.1025C121.284 32.3623 121.566 32.6289 121.739 32.9023C121.835 33.0527 121.814 33.1735 121.678 33.2646L121.247 33.5449C121.11 33.6406 120.974 33.5791 120.837 33.3604C120.705 33.1507 120.518 32.9707 120.276 32.8203C120.039 32.6699 119.682 32.5947 119.203 32.5947C118.579 32.5947 118.096 32.8249 117.754 33.2852C117.412 33.7454 117.241 34.4541 117.241 35.4111C117.241 36.3682 117.412 37.0768 117.754 37.5371C118.096 37.9974 118.579 38.2275 119.203 38.2275C119.709 38.2275 120.096 38.1318 120.365 37.9404C120.634 37.7445 120.83 37.5326 120.953 37.3047C121.072 37.0905 121.206 37.029 121.356 37.1201L121.814 37.3936C121.951 37.4756 121.972 37.5986 121.876 37.7627C121.762 37.9587 121.502 38.2344 121.097 38.5898C120.696 38.9408 120.064 39.1162 119.203 39.1162C118.109 39.1162 117.296 38.7676 116.763 38.0703C116.234 37.3685 115.97 36.4821 115.97 35.4111ZM123.681 39C123.476 39 123.373 38.8975 123.373 38.6924V29.2178C123.373 29.0127 123.476 28.9102 123.681 28.9102H124.269C124.474 28.9102 124.576 29.0127 124.576 29.2178V32.2666C124.576 32.4033 124.572 32.54 124.562 32.6768H124.59C124.886 32.3486 125.205 32.1048 125.547 31.9453C125.889 31.7858 126.315 31.7061 126.825 31.7061C127.655 31.7061 128.249 31.9408 128.609 32.4102C128.974 32.875 129.156 33.513 129.156 34.3242V38.6924C129.156 38.8975 129.054 39 128.849 39H128.261C128.056 39 127.953 38.8975 127.953 38.6924V34.6523C127.953 33.7591 127.805 33.194 127.509 32.957C127.213 32.7155 126.837 32.5947 126.381 32.5947C125.788 32.5947 125.34 32.7725 125.034 33.1279C124.729 33.4788 124.576 34.0827 124.576 34.9395V38.6924C124.576 38.8975 124.474 39 124.269 39H123.681ZM135.356 37.0859C135.356 36.2747 135.735 35.68 136.491 35.3018C137.252 34.9235 138.387 34.7025 139.896 34.6387V34.1738C139.896 33.7454 139.798 33.3763 139.602 33.0664C139.41 32.752 139.027 32.5947 138.453 32.5947C138.089 32.5947 137.797 32.6312 137.578 32.7041C137.359 32.7725 137.159 32.8659 136.977 32.9844C136.799 33.0983 136.628 33.2464 136.464 33.4287C136.341 33.5654 136.225 33.5723 136.115 33.4492L135.76 33.0391C135.66 32.9251 135.694 32.7884 135.862 32.6289C136.104 32.401 136.339 32.2301 136.566 32.1162C136.794 32.0023 137.077 31.9066 137.414 31.8291C137.756 31.7471 138.102 31.7061 138.453 31.7061C139.406 31.7061 140.085 31.9521 140.49 32.4443C140.896 32.932 141.099 33.6019 141.099 34.4541V38.6924C141.099 38.8975 140.996 39 140.791 39H140.176C139.998 39 139.909 38.8975 139.909 38.6924V38.3574H139.896C139.535 38.64 139.182 38.8382 138.836 38.9521C138.494 39.0615 138.111 39.1162 137.688 39.1162C136.94 39.1162 136.364 38.9385 135.958 38.583C135.557 38.223 135.356 37.724 135.356 37.0859ZM136.601 37.1133C136.601 37.3958 136.66 37.6237 136.778 37.7969C136.897 37.9655 137.061 38.0749 137.271 38.125C137.48 38.1706 137.699 38.1934 137.927 38.1934C138.278 38.1934 138.61 38.1592 138.925 38.0908C139.239 38.0225 139.563 37.8424 139.896 37.5508V35.5342C138.975 35.6025 138.319 35.6868 137.927 35.7871C137.535 35.8828 137.216 36.0514 136.97 36.293C136.724 36.5299 136.601 36.8034 136.601 37.1133ZM147.162 32.1572C147.085 31.9339 147.146 31.8223 147.347 31.8223H148.092C148.238 31.8223 148.34 31.9111 148.399 32.0889L149.849 36.6006C149.967 36.9697 150.047 37.2249 150.088 37.3662C150.133 37.5029 150.174 37.6738 150.211 37.8789H150.238C150.275 37.6738 150.313 37.5029 150.354 37.3662C150.4 37.2249 150.482 36.9697 150.601 36.6006L152.05 32.0889C152.109 31.9111 152.212 31.8223 152.357 31.8223H153.103C153.303 31.8223 153.365 31.9339 153.287 32.1572L151.045 38.583C150.949 38.861 150.826 39 150.676 39H149.773C149.623 39 149.5 38.861 149.404 38.583L147.162 32.1572ZM154.757 39C154.552 39 154.449 38.8975 154.449 38.6924V32.1299C154.449 31.9248 154.552 31.8223 154.757 31.8223H155.345C155.55 31.8223 155.652 31.9248 155.652 32.1299V38.6924C155.652 38.8975 155.55 39 155.345 39H154.757ZM154.757 30.5234C154.552 30.5234 154.449 30.4209 154.449 30.2158V29.6279C154.449 29.4229 154.552 29.3203 154.757 29.3203H155.345C155.55 29.3203 155.652 29.4229 155.652 29.6279V30.2158C155.652 30.4209 155.55 30.5234 155.345 30.5234H154.757ZM157.204 35.4111C157.204 34.4313 157.441 33.57 157.915 32.8271C158.389 32.0798 159.082 31.7061 159.993 31.7061C160.517 31.7061 160.937 31.7926 161.251 31.9658C161.565 32.139 161.848 32.376 162.099 32.6768H162.112C162.103 32.54 162.099 32.401 162.099 32.2598V29.2178C162.099 29.0127 162.201 28.9102 162.406 28.9102H162.994C163.199 28.9102 163.302 29.0127 163.302 29.2178V38.6924C163.302 38.8975 163.199 39 162.994 39H162.42C162.256 39 162.167 38.8975 162.153 38.6924L162.112 38.1455H162.099C161.848 38.4463 161.565 38.6833 161.251 38.8564C160.937 39.0296 160.517 39.1162 159.993 39.1162C159.082 39.1162 158.389 38.7448 157.915 38.002C157.441 37.2546 157.204 36.391 157.204 35.4111ZM158.476 35.4111C158.476 36.2497 158.619 36.9287 158.906 37.4482C159.198 37.9678 159.69 38.2275 160.383 38.2275C160.875 38.2275 161.283 38.0612 161.606 37.7285C161.935 37.3913 162.099 36.8809 162.099 36.1973V34.625C162.099 33.9414 161.935 33.4333 161.606 33.1006C161.283 32.7633 160.875 32.5947 160.383 32.5947C159.69 32.5947 159.198 32.8545 158.906 33.374C158.619 33.8936 158.476 34.5726 158.476 35.4111ZM164.86 35.4111C164.86 34.2809 165.143 33.3809 165.708 32.7109C166.273 32.041 167.082 31.7061 168.135 31.7061C169.01 31.7061 169.734 32.0137 170.309 32.6289C170.887 33.2396 171.177 34.2171 171.177 35.5615C171.177 35.7666 171.083 35.8691 170.896 35.8691H166.132C166.209 36.7487 166.446 37.3617 166.843 37.708C167.239 38.0498 167.688 38.2207 168.189 38.2207C168.718 38.2207 169.124 38.1318 169.406 37.9541C169.689 37.7764 169.896 37.6009 170.028 37.4277C170.174 37.2363 170.315 37.1999 170.452 37.3184L170.855 37.667C170.96 37.7581 170.96 37.8835 170.855 38.043C170.769 38.1751 170.521 38.387 170.11 38.6787C169.705 38.9704 169.064 39.1162 168.189 39.1162C167.05 39.1162 166.209 38.7812 165.667 38.1113C165.129 37.4414 164.86 36.5413 164.86 35.4111ZM166.104 34.9805H169.967C169.949 34.3424 169.785 33.7842 169.475 33.3057C169.165 32.8226 168.709 32.5811 168.107 32.5811C167.579 32.5811 167.13 32.7588 166.761 33.1143C166.392 33.4652 166.173 34.0872 166.104 34.9805ZM172.366 35.4111C172.366 34.3402 172.649 33.4561 173.214 32.7588C173.784 32.057 174.615 31.7061 175.709 31.7061C176.803 31.7061 177.632 32.057 178.197 32.7588C178.767 33.4561 179.052 34.3402 179.052 35.4111C179.052 36.4821 178.767 37.3685 178.197 38.0703C177.632 38.7676 176.803 39.1162 175.709 39.1162C174.615 39.1162 173.784 38.7676 173.214 38.0703C172.649 37.3685 172.366 36.4821 172.366 35.4111ZM173.638 35.4111C173.638 36.3682 173.827 37.0768 174.205 37.5371C174.583 37.9974 175.085 38.2275 175.709 38.2275C176.333 38.2275 176.835 37.9974 177.213 37.5371C177.591 37.0768 177.78 36.3682 177.78 35.4111C177.78 34.4541 177.591 33.7454 177.213 33.2852C176.835 32.8249 176.333 32.5947 175.709 32.5947C175.085 32.5947 174.583 32.8249 174.205 33.2852C173.827 33.7454 173.638 34.4541 173.638 35.4111ZM184.876 37.0859C184.876 36.2747 185.254 35.68 186.011 35.3018C186.772 34.9235 187.907 34.7025 189.415 34.6387V34.1738C189.415 33.7454 189.317 33.3763 189.121 33.0664C188.93 32.752 188.547 32.5947 187.973 32.5947C187.608 32.5947 187.316 32.6312 187.098 32.7041C186.879 32.7725 186.678 32.8659 186.496 32.9844C186.318 33.0983 186.147 33.2464 185.983 33.4287C185.86 33.5654 185.744 33.5723 185.635 33.4492L185.279 33.0391C185.179 32.9251 185.213 32.7884 185.382 32.6289C185.623 32.401 185.858 32.2301 186.086 32.1162C186.314 32.0023 186.596 31.9066 186.934 31.8291C187.275 31.7471 187.622 31.7061 187.973 31.7061C188.925 31.7061 189.604 31.9521 190.01 32.4443C190.415 32.932 190.618 33.6019 190.618 34.4541V38.6924C190.618 38.8975 190.516 39 190.311 39H189.695C189.518 39 189.429 38.8975 189.429 38.6924V38.3574H189.415C189.055 38.64 188.702 38.8382 188.355 38.9521C188.014 39.0615 187.631 39.1162 187.207 39.1162C186.46 39.1162 185.883 38.9385 185.478 38.583C185.076 38.223 184.876 37.724 184.876 37.0859ZM186.12 37.1133C186.12 37.3958 186.179 37.6237 186.298 37.7969C186.416 37.9655 186.58 38.0749 186.79 38.125C187 38.1706 187.218 38.1934 187.446 38.1934C187.797 38.1934 188.13 38.1592 188.444 38.0908C188.759 38.0225 189.082 37.8424 189.415 37.5508V35.5342C188.494 35.6025 187.838 35.6868 187.446 35.7871C187.054 35.8828 186.735 36.0514 186.489 36.293C186.243 36.5299 186.12 36.8034 186.12 37.1133ZM192.874 39C192.669 39 192.566 38.8975 192.566 38.6924V29.2178C192.566 29.0127 192.669 28.9102 192.874 28.9102H193.462C193.667 28.9102 193.77 29.0127 193.77 29.2178V32.2598C193.77 32.401 193.765 32.54 193.756 32.6768H193.77C194.02 32.376 194.303 32.139 194.617 31.9658C194.932 31.7926 195.351 31.7061 195.875 31.7061C196.786 31.7061 197.479 32.0798 197.953 32.8271C198.427 33.57 198.664 34.4313 198.664 35.4111C198.664 36.391 198.427 37.2546 197.953 38.002C197.479 38.7448 196.786 39.1162 195.875 39.1162C195.351 39.1162 194.932 39.0296 194.617 38.8564C194.303 38.6833 194.02 38.4463 193.77 38.1455H193.756L193.715 38.6924C193.701 38.8975 193.612 39 193.448 39H192.874ZM193.77 36.1973C193.77 36.8809 193.931 37.3913 194.255 37.7285C194.583 38.0612 194.993 38.2275 195.485 38.2275C196.178 38.2275 196.668 37.9678 196.955 37.4482C197.247 36.9287 197.393 36.2497 197.393 35.4111C197.393 34.5726 197.247 33.8936 196.955 33.374C196.668 32.8545 196.178 32.5947 195.485 32.5947C194.993 32.5947 194.583 32.7633 194.255 33.1006C193.931 33.4333 193.77 33.9414 193.77 34.625V36.1973ZM199.833 35.4111C199.833 34.3402 200.116 33.4561 200.681 32.7588C201.25 32.057 202.082 31.7061 203.176 31.7061C204.27 31.7061 205.099 32.057 205.664 32.7588C206.234 33.4561 206.519 34.3402 206.519 35.4111C206.519 36.4821 206.234 37.3685 205.664 38.0703C205.099 38.7676 204.27 39.1162 203.176 39.1162C202.082 39.1162 201.25 38.7676 200.681 38.0703C200.116 37.3685 199.833 36.4821 199.833 35.4111ZM201.104 35.4111C201.104 36.3682 201.294 37.0768 201.672 37.5371C202.05 37.9974 202.551 38.2275 203.176 38.2275C203.8 38.2275 204.301 37.9974 204.68 37.5371C205.058 37.0768 205.247 36.3682 205.247 35.4111C205.247 34.4541 205.058 33.7454 204.68 33.2852C204.301 32.8249 203.8 32.5947 203.176 32.5947C202.551 32.5947 202.05 32.8249 201.672 33.2852C201.294 33.7454 201.104 34.4541 201.104 35.4111ZM208.057 36.498V32.1299C208.057 31.9248 208.159 31.8223 208.364 31.8223H208.952C209.157 31.8223 209.26 31.9248 209.26 32.1299V36.1699C209.26 37.0632 209.408 37.6305 209.704 37.8721C210 38.109 210.367 38.2275 210.805 38.2275C211.379 38.2275 211.819 38.0521 212.124 37.7012C212.429 37.3457 212.582 36.7396 212.582 35.8828V32.1299C212.582 31.9248 212.685 31.8223 212.89 31.8223H213.478C213.683 31.8223 213.785 31.9248 213.785 32.1299V38.6924C213.785 38.8975 213.683 39 213.478 39H212.903C212.698 39 212.596 38.8975 212.596 38.6924V38.1455H212.568C212.272 38.4736 211.953 38.7174 211.611 38.877C211.27 39.0365 210.853 39.1162 210.36 39.1162C209.563 39.1162 208.979 38.8838 208.61 38.4189C208.241 37.9495 208.057 37.3092 208.057 36.498ZM215.378 32.7246C215.173 32.7246 215.07 32.6449 215.07 32.4854V32.0615C215.07 31.902 215.173 31.8223 215.378 31.8223H216.185V31.207C216.185 31.1159 216.207 31.0293 216.253 30.9473L216.731 30.0791C216.818 29.9196 216.889 29.8398 216.943 29.8398H217.183C217.319 29.8398 217.388 29.9196 217.388 30.0791V31.8223H218.844C219.049 31.8223 219.151 31.902 219.151 32.0615V32.4854C219.151 32.6449 219.049 32.7246 218.844 32.7246H217.388V37.0791C217.388 37.5576 217.458 37.8698 217.6 38.0156C217.745 38.1569 217.919 38.2275 218.119 38.2275C218.274 38.2275 218.459 38.182 218.673 38.0908C218.892 37.9997 219.042 37.9222 219.124 37.8584C219.206 37.7946 219.27 37.8151 219.315 37.9199L219.541 38.4463C219.577 38.5374 219.55 38.6104 219.459 38.665C219.281 38.7699 219.021 38.8724 218.68 38.9727C218.338 39.0684 217.996 39.1162 217.654 39.1162C217.18 39.1162 216.816 38.9453 216.561 38.6035C216.31 38.2617 216.185 37.7786 216.185 37.1543V32.7246H215.378ZM225.181 35.4111C225.181 34.3402 225.463 33.4561 226.028 32.7588C226.598 32.057 227.43 31.7061 228.523 31.7061C229.617 31.7061 230.447 32.057 231.012 32.7588C231.581 33.4561 231.866 34.3402 231.866 35.4111C231.866 36.4821 231.581 37.3685 231.012 38.0703C230.447 38.7676 229.617 39.1162 228.523 39.1162C227.43 39.1162 226.598 38.7676 226.028 38.0703C225.463 37.3685 225.181 36.4821 225.181 35.4111ZM226.452 35.4111C226.452 36.3682 226.641 37.0768 227.02 37.5371C227.398 37.9974 227.899 38.2275 228.523 38.2275C229.148 38.2275 229.649 37.9974 230.027 37.5371C230.406 37.0768 230.595 36.3682 230.595 35.4111C230.595 34.4541 230.406 33.7454 230.027 33.2852C229.649 32.8249 229.148 32.5947 228.523 32.5947C227.899 32.5947 227.398 32.8249 227.02 33.2852C226.641 33.7454 226.452 34.4541 226.452 35.4111ZM233.404 36.498V32.1299C233.404 31.9248 233.507 31.8223 233.712 31.8223H234.3C234.505 31.8223 234.607 31.9248 234.607 32.1299V36.1699C234.607 37.0632 234.756 37.6305 235.052 37.8721C235.348 38.109 235.715 38.2275 236.152 38.2275C236.727 38.2275 237.166 38.0521 237.472 37.7012C237.777 37.3457 237.93 36.7396 237.93 35.8828V32.1299C237.93 31.9248 238.032 31.8223 238.237 31.8223H238.825C239.03 31.8223 239.133 31.9248 239.133 32.1299V38.6924C239.133 38.8975 239.03 39 238.825 39H238.251C238.046 39 237.943 38.8975 237.943 38.6924V38.1455H237.916C237.62 38.4736 237.301 38.7174 236.959 38.877C236.617 39.0365 236.2 39.1162 235.708 39.1162C234.91 39.1162 234.327 38.8838 233.958 38.4189C233.589 37.9495 233.404 37.3092 233.404 36.498ZM241.382 39C241.177 39 241.074 38.8975 241.074 38.6924V32.1299C241.074 31.9248 241.177 31.8223 241.382 31.8223H241.956C242.161 31.8223 242.264 31.9248 242.264 32.1299V32.9502H242.291C242.51 32.54 242.767 32.2301 243.063 32.0205C243.36 31.8109 243.729 31.7061 244.171 31.7061C244.463 31.7061 244.668 31.7311 244.786 31.7812C244.891 31.8223 244.93 31.8906 244.902 31.9863L244.745 32.5469C244.722 32.6289 244.663 32.6608 244.567 32.6426C244.408 32.6107 244.257 32.5947 244.116 32.5947C243.583 32.5947 243.143 32.8363 242.797 33.3193C242.451 33.7979 242.277 34.4518 242.277 35.2812V38.6924C242.277 38.8975 242.175 39 241.97 39H241.382ZM250.979 39C250.774 39 250.672 38.8975 250.672 38.6924V29.2178C250.672 29.0127 250.774 28.9102 250.979 28.9102H251.567C251.772 28.9102 251.875 29.0127 251.875 29.2178V32.2598C251.875 32.401 251.87 32.54 251.861 32.6768H251.875C252.126 32.376 252.408 32.139 252.723 31.9658C253.037 31.7926 253.456 31.7061 253.98 31.7061C254.892 31.7061 255.585 32.0798 256.059 32.8271C256.533 33.57 256.77 34.4313 256.77 35.4111C256.77 36.391 256.533 37.2546 256.059 38.002C255.585 38.7448 254.892 39.1162 253.98 39.1162C253.456 39.1162 253.037 39.0296 252.723 38.8564C252.408 38.6833 252.126 38.4463 251.875 38.1455H251.861L251.82 38.6924C251.807 38.8975 251.718 39 251.554 39H250.979ZM251.875 36.1973C251.875 36.8809 252.037 37.3913 252.36 37.7285C252.688 38.0612 253.099 38.2275 253.591 38.2275C254.284 38.2275 254.773 37.9678 255.061 37.4482C255.352 36.9287 255.498 36.2497 255.498 35.4111C255.498 34.5726 255.352 33.8936 255.061 33.374C254.773 32.8545 254.284 32.5947 253.591 32.5947C253.099 32.5947 252.688 32.7633 252.36 33.1006C252.037 33.4333 251.875 33.9414 251.875 34.625V36.1973ZM258.314 36.498V32.1299C258.314 31.9248 258.417 31.8223 258.622 31.8223H259.21C259.415 31.8223 259.518 31.9248 259.518 32.1299V36.1699C259.518 37.0632 259.666 37.6305 259.962 37.8721C260.258 38.109 260.625 38.2275 261.062 38.2275C261.637 38.2275 262.076 38.0521 262.382 37.7012C262.687 37.3457 262.84 36.7396 262.84 35.8828V32.1299C262.84 31.9248 262.942 31.8223 263.147 31.8223H263.735C263.94 31.8223 264.043 31.9248 264.043 32.1299V38.6924C264.043 38.8975 263.94 39 263.735 39H263.161C262.956 39 262.854 38.8975 262.854 38.6924V38.1455H262.826C262.53 38.4736 262.211 38.7174 261.869 38.877C261.527 39.0365 261.11 39.1162 260.618 39.1162C259.821 39.1162 259.237 38.8838 258.868 38.4189C258.499 37.9495 258.314 37.3092 258.314 36.498ZM265.704 38.3301C265.563 38.1979 265.533 38.0749 265.615 37.9609L265.923 37.5303C266.023 37.3936 266.171 37.4004 266.367 37.5508C266.636 37.7559 266.935 37.9199 267.263 38.043C267.595 38.166 267.974 38.2275 268.397 38.2275C268.648 38.2275 268.871 38.1979 269.067 38.1387C269.263 38.0749 269.434 37.9587 269.58 37.79C269.73 37.6214 269.806 37.3958 269.806 37.1133C269.806 36.9492 269.769 36.7943 269.696 36.6484C269.628 36.5026 269.519 36.3864 269.368 36.2998C269.222 36.2087 269.079 36.138 268.938 36.0879C268.705 36.0013 268.473 35.9307 268.24 35.876C268.012 35.8167 267.712 35.7279 267.338 35.6094C267.087 35.5319 266.85 35.4225 266.627 35.2812C266.404 35.1354 266.208 34.9395 266.039 34.6934C265.875 34.4473 265.793 34.1077 265.793 33.6748C265.793 33.2327 265.927 32.8522 266.196 32.5332C266.465 32.2142 266.802 31.9977 267.208 31.8838C267.614 31.7653 268.008 31.7061 268.391 31.7061C268.956 31.7061 269.409 31.7721 269.751 31.9043C270.097 32.0319 270.396 32.1846 270.646 32.3623C270.792 32.4671 270.813 32.5879 270.708 32.7246L270.4 33.1348C270.305 33.2669 270.157 33.2624 269.956 33.1211C269.787 33.0026 269.548 32.891 269.238 32.7861C268.928 32.6813 268.657 32.6289 268.425 32.6289C268.138 32.6289 267.892 32.6608 267.687 32.7246C267.481 32.7884 267.315 32.8978 267.188 33.0527C267.06 33.2077 266.996 33.39 266.996 33.5996C266.996 33.7591 267.021 33.9027 267.071 34.0303C267.121 34.1533 267.215 34.2673 267.352 34.3721C267.488 34.4769 267.68 34.5612 267.926 34.625C268.309 34.7253 268.657 34.8164 268.972 34.8984C269.291 34.9805 269.578 35.0807 269.833 35.1992C270.166 35.3542 270.421 35.5251 270.599 35.7119C270.781 35.8988 270.906 36.1016 270.975 36.3203C271.043 36.5345 271.077 36.7738 271.077 37.0381C271.077 37.5257 270.931 37.9382 270.64 38.2754C270.353 38.6126 270.031 38.8382 269.676 38.9521C269.32 39.0615 268.892 39.1162 268.391 39.1162C267.712 39.1162 267.128 39.0205 266.641 38.8291C266.158 38.6331 265.845 38.4668 265.704 38.3301ZM272.745 39C272.54 39 272.438 38.8975 272.438 38.6924V32.1299C272.438 31.9248 272.54 31.8223 272.745 31.8223H273.333C273.538 31.8223 273.641 31.9248 273.641 32.1299V38.6924C273.641 38.8975 273.538 39 273.333 39H272.745ZM272.745 30.5234C272.54 30.5234 272.438 30.4209 272.438 30.2158V29.6279C272.438 29.4229 272.54 29.3203 272.745 29.3203H273.333C273.538 29.3203 273.641 29.4229 273.641 29.6279V30.2158C273.641 30.4209 273.538 30.5234 273.333 30.5234H272.745ZM275.89 39C275.685 39 275.582 38.8975 275.582 38.6924V32.1299C275.582 31.9248 275.685 31.8223 275.89 31.8223H276.464C276.669 31.8223 276.771 31.9248 276.771 32.1299V32.6768H276.799C277.095 32.3486 277.414 32.1048 277.756 31.9453C278.098 31.7858 278.524 31.7061 279.034 31.7061C279.864 31.7061 280.458 31.9408 280.818 32.4102C281.183 32.875 281.365 33.513 281.365 34.3242V38.6924C281.365 38.8975 281.263 39 281.058 39H280.47C280.265 39 280.162 38.8975 280.162 38.6924V34.6523C280.162 33.7591 280.014 33.194 279.718 32.957C279.422 32.7155 279.046 32.5947 278.59 32.5947C277.997 32.5947 277.549 32.7725 277.243 33.1279C276.938 33.4788 276.785 34.0827 276.785 34.9395V38.6924C276.785 38.8975 276.683 39 276.478 39H275.89ZM282.903 35.4111C282.903 34.2809 283.186 33.3809 283.751 32.7109C284.316 32.041 285.125 31.7061 286.178 31.7061C287.053 31.7061 287.777 32.0137 288.352 32.6289C288.93 33.2396 289.22 34.2171 289.22 35.5615C289.22 35.7666 289.126 35.8691 288.939 35.8691H284.175C284.252 36.7487 284.489 37.3617 284.886 37.708C285.282 38.0498 285.731 38.2207 286.232 38.2207C286.761 38.2207 287.167 38.1318 287.449 37.9541C287.732 37.7764 287.939 37.6009 288.071 37.4277C288.217 37.2363 288.358 37.1999 288.495 37.3184L288.898 37.667C289.003 37.7581 289.003 37.8835 288.898 38.043C288.812 38.1751 288.563 38.387 288.153 38.6787C287.748 38.9704 287.107 39.1162 286.232 39.1162C285.093 39.1162 284.252 38.7812 283.71 38.1113C283.172 37.4414 282.903 36.5413 282.903 35.4111ZM284.147 34.9805H288.01C287.992 34.3424 287.827 33.7842 287.518 33.3057C287.208 32.8226 286.752 32.5811 286.15 32.5811C285.622 32.5811 285.173 32.7588 284.804 33.1143C284.435 33.4652 284.216 34.0872 284.147 34.9805ZM290.519 38.3301C290.377 38.1979 290.348 38.0749 290.43 37.9609L290.737 37.5303C290.838 37.3936 290.986 37.4004 291.182 37.5508C291.451 37.7559 291.749 37.9199 292.077 38.043C292.41 38.166 292.788 38.2275 293.212 38.2275C293.463 38.2275 293.686 38.1979 293.882 38.1387C294.078 38.0749 294.249 37.9587 294.395 37.79C294.545 37.6214 294.62 37.3958 294.62 37.1133C294.62 36.9492 294.584 36.7943 294.511 36.6484C294.442 36.5026 294.333 36.3864 294.183 36.2998C294.037 36.2087 293.893 36.138 293.752 36.0879C293.52 36.0013 293.287 35.9307 293.055 35.876C292.827 35.8167 292.526 35.7279 292.152 35.6094C291.902 35.5319 291.665 35.4225 291.441 35.2812C291.218 35.1354 291.022 34.9395 290.854 34.6934C290.689 34.4473 290.607 34.1077 290.607 33.6748C290.607 33.2327 290.742 32.8522 291.011 32.5332C291.28 32.2142 291.617 31.9977 292.022 31.8838C292.428 31.7653 292.822 31.7061 293.205 31.7061C293.77 31.7061 294.224 31.7721 294.565 31.9043C294.912 32.0319 295.21 32.1846 295.461 32.3623C295.607 32.4671 295.627 32.5879 295.522 32.7246L295.215 33.1348C295.119 33.2669 294.971 33.2624 294.771 33.1211C294.602 33.0026 294.363 32.891 294.053 32.7861C293.743 32.6813 293.472 32.6289 293.239 32.6289C292.952 32.6289 292.706 32.6608 292.501 32.7246C292.296 32.7884 292.13 32.8978 292.002 33.0527C291.874 33.2077 291.811 33.39 291.811 33.5996C291.811 33.7591 291.836 33.9027 291.886 34.0303C291.936 34.1533 292.029 34.2673 292.166 34.3721C292.303 34.4769 292.494 34.5612 292.74 34.625C293.123 34.7253 293.472 34.8164 293.786 34.8984C294.105 34.9805 294.392 35.0807 294.647 35.1992C294.98 35.3542 295.235 35.5251 295.413 35.7119C295.595 35.8988 295.721 36.1016 295.789 36.3203C295.857 36.5345 295.892 36.7738 295.892 37.0381C295.892 37.5257 295.746 37.9382 295.454 38.2754C295.167 38.6126 294.846 38.8382 294.49 38.9521C294.135 39.0615 293.706 39.1162 293.205 39.1162C292.526 39.1162 291.943 39.0205 291.455 38.8291C290.972 38.6331 290.66 38.4668 290.519 38.3301ZM296.972 38.3301C296.83 38.1979 296.801 38.0749 296.883 37.9609L297.19 37.5303C297.291 37.3936 297.439 37.4004 297.635 37.5508C297.904 37.7559 298.202 37.9199 298.53 38.043C298.863 38.166 299.241 38.2275 299.665 38.2275C299.916 38.2275 300.139 38.1979 300.335 38.1387C300.531 38.0749 300.702 37.9587 300.848 37.79C300.998 37.6214 301.073 37.3958 301.073 37.1133C301.073 36.9492 301.037 36.7943 300.964 36.6484C300.896 36.5026 300.786 36.3864 300.636 36.2998C300.49 36.2087 300.346 36.138 300.205 36.0879C299.973 36.0013 299.74 35.9307 299.508 35.876C299.28 35.8167 298.979 35.7279 298.605 35.6094C298.355 35.5319 298.118 35.4225 297.895 35.2812C297.671 35.1354 297.475 34.9395 297.307 34.6934C297.143 34.4473 297.061 34.1077 297.061 33.6748C297.061 33.2327 297.195 32.8522 297.464 32.5332C297.733 32.2142 298.07 31.9977 298.476 31.8838C298.881 31.7653 299.275 31.7061 299.658 31.7061C300.223 31.7061 300.677 31.7721 301.019 31.9043C301.365 32.0319 301.663 32.1846 301.914 32.3623C302.06 32.4671 302.08 32.5879 301.976 32.7246L301.668 33.1348C301.572 33.2669 301.424 33.2624 301.224 33.1211C301.055 33.0026 300.816 32.891 300.506 32.7861C300.196 32.6813 299.925 32.6289 299.692 32.6289C299.405 32.6289 299.159 32.6608 298.954 32.7246C298.749 32.7884 298.583 32.8978 298.455 33.0527C298.327 33.2077 298.264 33.39 298.264 33.5996C298.264 33.7591 298.289 33.9027 298.339 34.0303C298.389 34.1533 298.482 34.2673 298.619 34.3721C298.756 34.4769 298.947 34.5612 299.193 34.625C299.576 34.7253 299.925 34.8164 300.239 34.8984C300.558 34.9805 300.845 35.0807 301.101 35.1992C301.433 35.3542 301.688 35.5251 301.866 35.7119C302.049 35.8988 302.174 36.1016 302.242 36.3203C302.311 36.5345 302.345 36.7738 302.345 37.0381C302.345 37.5257 302.199 37.9382 301.907 38.2754C301.62 38.6126 301.299 38.8382 300.943 38.9521C300.588 39.0615 300.16 39.1162 299.658 39.1162C298.979 39.1162 298.396 39.0205 297.908 38.8291C297.425 38.6331 297.113 38.4668 296.972 38.3301Z" fill="white"/>
<line x1="90" y1="48.5" x2="310" y2="48.5" stroke="white" stroke-width="3"/>
</svg>
